<svg xmlns="http://www.w3.org/2000/svg" xmlns:xlink="http://www.w3.org/1999/xlink" version="1.1" x="0px" y="0px" viewBox="0 0 100 125" style="enable-background:new 0 0 100 100;" xml:space="preserve"><g><path d="M15.7,18c1-2.3-0.7-3.3-0.7-3.3c-1.8-1.3-3,0-3,0c-1,0.8-0.7,2.7-0.7,2.7C12.7,18,15.7,18,15.7,18z"/><path d="M15.2,19.4c0,0-2.3-0.2-4.2-0.8c0,0-2,2.2,1.3,7.5C12.4,26.1,13.6,20.5,15.2,19.4z"/><path d="M77.8,58.1c0.9,0.3,1.9,0.4,2.8,0.3c1.3-0.1,2.5-0.6,0.6-2.2c-3.5-2.8-17.1-12.6-17.1-12.6s4.9,8.5,5.7,12.1   C69.8,55.7,74.7,57.1,77.8,58.1z"/><path d="M88.9,95.1L72.7,66.4c-4.4,0.8-10.9-1.3-10.9-1.3l26,32.5c0.4,0.4,1,0.5,1.5,0.2C90.1,97.3,88.9,95.1,88.9,95.1z"/><path d="M50.7,62.1c-6-1.8-12.2-8.4-12.2-8.4c-10.2-11.4-9.7-22.3-9.7-22.3s0,4.4,4.7,12.3c1.6,1.1,4.7,2.5,7.1,0   c0,0,4.2,3.9,7.4,0.2c0,0,5,1.8,4.9-3c0,0,1,0.2,1.9,0.3c-3.8-8.6-10.1-16.8-10.1-16.8c5.7,5.4,10.2,13.4,12.4,17.6   c2.2,4.2,2.2,5.5,2.2,5.5l8.9,7.2c-2.8-6.5-9.2-17.9-11.1-19.9c-1.8-2-9.5-12.9-12.2-14.7c-1-0.7-1.8-1.4-2.5-2.1   c-0.3,0.1-0.4,0.1-0.4,0.1l-2,0.7c-0.7,0.3-1.3,0.7-1.7,1.3c-1,1.3-3.1,1.7-3.1,1.7c1.1-0.6,2.1-1.9,2.7-2.8c0.4-0.6,1-1.1,1.8-1.4   l1.3-0.5c0.2,0,0.4-0.1,0.5-0.1c-0.5-0.6-0.8-1-0.8-1c-0.4-1-0.8-1.9-1.3-2.8c-1.1,2.2-2.6,2.9-2.6,2.9l-1.8,1.2   c-0.6,0.4-1.1,1-1.4,1.7c-0.6,1.5-2.6,2.4-2.6,2.4c1-0.9,1.6-2.4,2-3.4c0.3-0.7,0.8-1.3,1.4-1.8l1.2-0.8c1.5-0.6,2.4-2.1,3-3.6   c-0.9-1.5-2-2.8-2.8-3.8c-0.1,4.4-2.5,5.9-2.5,5.9l-1.6,1.4c-0.6,0.5-0.9,1.1-1.1,1.9c-0.4,1.6-2.3,2.8-2.3,2.8   c0.8-1,1.3-2.6,1.5-3.6c0.2-0.8,0.5-1.4,1.1-2l1-1c2.2-1.3,2.7-4.4,2.7-6.6C33.5,5.6,33,5.1,33,5.1c-0.4-0.3-0.8-0.5-1.2-0.8   c1.3,5.7-1.6,7.9-1.6,7.9l-1.4,1.6c-0.5,0.6-0.8,1.2-0.9,2c-0.2,1.6-1.9,3-1.9,3c0.7-1.1,1-2.7,1.1-3.8c0.1-0.8,0.4-1.5,0.9-2.1   l0.9-1.1c2.4-1.9,2.2-6,1.8-8.1c-1-0.5-1.9-0.9-2.8-1.1c2.6,6.4-1.6,8.2-1.6,8.2c2.6-2.9,1.2-6.8,0.4-8.4C25.6,2.1,24.7,2,23.8,2   c3.4,4.1,1.1,7.6,0.5,8.3c0,0,0.7-2.5,0.7-3.2c0-2.1-1.7-3.9-2.9-5c-4.5,0.5-7.8,3.2-9,5.2c-2,3.5-0.5,5.4-0.5,5.4   c3.7-1.5,6,3.7,4.4,6.2c-1.7,2.5-2.7,6.2-2.7,6.2c0.3,3,2.3,9.2,2.3,9.2l0.7-2.5c0,2.2,1.3,11,1.3,11c2,8.5,11.3,17.3,14.8,19.1   c2.9,1.5,6.4,5,9.7,5.7c-0.2,0.4-0.6,0.9-1.4,1.4c-3,2-6,3.7-6,3.7s-3.7,1-5.4,1.8c-1.7,0.8-1,2.8-1,2.8c0-1,3.5-1.8,5-1.5   c1.5,0.3,4.4-0.7,4.4-0.7c1.2,0.8,8,1,8,1l2.3,0.8c0,0-0.2-1-1.3-2.2c-1.2-1.2-2.5-0.3-5-1.2s-1-1.8-1-1.8s2.3-1.3,4.5-2.5   c1.1-0.6,1.1-1.5,0.9-2.2c3.5-1.3,7-3.8,7-3.8L50.7,62.1z M18,28.4c-0.4-0.4-0.9-2.8,0.3-2.4c0,0,1.1,0.3,1.1,1S18.4,28.8,18,28.4z    M20.2,12.8c0-0.8,0.6-1.4,1.4-1.4c0.8,0,1.4,0.6,1.4,1.4c0,0.8-0.6,1.4-1.4,1.4C20.8,14.2,20.2,13.6,20.2,12.8z M23.4,30.4   c-0.5,0.5-1.8-0.8-1.8-1.8s1.5-1.3,1.5-1.3C24.6,26.7,23.9,29.9,23.4,30.4z M23.8,25l0.2-1.8c0,0-0.7,1.2-1.2,1.2   c-0.5,0-0.3-1.7-0.3-1.7s-0.7,1-1.3,0.3c-0.7-0.7,0-3.5,0-3.5s4.4,1.2,4.4,2.2S24.6,25,23.8,25z"/><path d="M56.1,50.8c1.2-1.7,1-2.7,1-2.7c-0.4-1.8-1-3.6-1.8-5.5h-0.9c0,0,0,1.8-2.3,3c-2.3,1.2-3.7,0.5-3.7,0.5s-3,1.3-4.5,1   c-1.5-0.3-3-1.3-3-1.3S38.7,47.2,37,47c-0.6-0.1-1.2-0.3-1.8-0.5c0.6,1,1.4,2,2.1,3C45.9,61,64.6,64.2,71.2,64.6   c6.5,0.3,9.9-3.2,6.4-3.7c-3.5-0.5-9-3.9-9-3.9l-9.2-7.4l-0.2,1C56,57,43.3,51.5,40.2,50C44.4,51.8,55,52.4,56.1,50.8z"/></g></svg>
