<svg xmlns="http://www.w3.org/2000/svg" xmlns:xlink="http://www.w3.org/1999/xlink" version="1.1" x="0px" y="0px" viewBox="0 0 100 125" style="enable-background:new 0 0 100 100;" xml:space="preserve"><g><path d="M15,11.3c-1.1-2.1-4.3-2-5.1-1.8C9.1,9.7,8.4,9.4,8.4,9.4l-5.6,4.4c-0.4,0.3-0.6,0.7-0.7,1.2L2,15.6c0,0,4-1.4,5.1-1.7   C9.5,13.3,16.2,13.4,15,11.3z"/><path d="M96.4,50.7c-3.6-4.5-9.6-12.4-13.5-18.2c-3.9-5.8-12-14.3-16-14.5c-3.9-0.2-8.3,1.3-8.3,1.3l2.1-2.1   c-2.6,0-14.3,3.4-21.3,8.8c-7,5.5-11.7,6.2-13.4,4.5c-1.7-1.7-3.9-3.9-4.3-6.2c-0.8-5.6,1.3-7.3,0.9-12.8   c-0.5-7.7-7.1-9.8-10.5-7.9C8.8,5.6,8.7,8,8.7,8c0.7,0.9,2.3,0,3.9,0.4c2.4,0.7,4.2,2.2,3.9,3.9c-0.5,2.1-6.3,2.3-6.3,2.3   c0.9,0.8,3.4,3.2,3.2,6.4c-0.1,0.8-1.3,7.2-1.3,7.2c-2.6,17.3,8.6,21.4,14.4,26.3c9.4,7.9,24.1,6.2,35,6.2c5.3,0,12.8,0.5,16.6-0.1   c1.5-0.3,2-0.1,3.4,0.4c0.5,0.2,1,0.4,1.6,0.6c2.8,1.6,6.5,4.4,8.2,8.8l1.4,3.7c0,0,1.1-3.7,0.6-6.8c0,0,1.4,1.4,1.4,4.5l1.7-5.1   C96.4,66.7,100,55.3,96.4,50.7z M17,9.6c-0.5,0-1-0.4-1-1c0-0.5,0.4-1,1-1s1,0.4,1,1C18,9.2,17.5,9.6,17,9.6z"/><path d="M64.7,83.3c-0.2-4.8,0-7.3,0.1-8.5c0.1-1.1,0.1-1.6-0.7-4.1c-0.8-2.5-2.2-8.4-2.2-8.4s-5,0.2-8.7-0.3c0,0,5.2,3.8,6.5,11   c0,0-0.1,1.7,1.1,3.5c0,0,1.5,11.5,1.2,16.3c0,0-1.9,1.6-3.6,1.8c-1.7,0.2-3.4,1.3-3.5,2.2c0,0,0.6-0.4,1.1-0.4   c0.6,0,0.9,0.7,3.1,0.2c2.2-0.5,4.6-1.4,5.4-1.4c0,0-0.3,1.5,0.1,1.8c0,0,3.2-2.5,1.3-4.4C66.1,92.5,64.9,88.1,64.7,83.3z"/><path d="M51.4,89.1c0.1-0.9,7.1-14.3,7.1-14.3l-0.1-2.6c0,0-1.4-6.3-6.7-9.9l-2,0.2c0,0,2.7,3.4,3.4,5.3c0.7,1.9,1.5,3.6,1.5,4.6   c0,0-0.8,1-0.8,2.3c0.1,1.2,0.2,2,0.2,2s-3.8,9.1-5.5,11.2c0,0-0.9,1.1-0.9,1.5c0,0.4-0.7,1.3-0.7,1.3s-2.2,1.8-3.3,2.1   s-1.9,0.1-2.4,1c-0.6,0.9-0.6,0.9-0.6,0.9s0.8-0.6,1.4-0.6c0.7,0,1.4,0.8,3.1-0.1c1.7-0.8,2.9-0.8,2.9-0.8l-1,0.9   c0,0,2.4-0.1,3.4-0.8c1-0.8-0.5-1.2,0.1-1.9C51.1,90.8,51.3,90.1,51.4,89.1z"/></g></svg>
