<svg xmlns="http://www.w3.org/2000/svg" xmlns:xlink="http://www.w3.org/1999/xlink" version="1.1" x="0px" y="0px" viewBox="0 0 100 125" style="enable-background:new 0 0 100 100;" xml:space="preserve"><g><path d="M19,13.8c0,0-3.8-1.8-4.8-2.9c0,0-0.3-0.6-1.9-0.6l-0.9,1c0,0-3,1.8-3.6,4C7.2,17.5,9,19.8,9,19.8s-0.7-3.1,1-4   c2.4-1.2,5.3-1.7,7.2-1.9C19,13.8,19,13.8,19,13.8z"/><path d="M16.3,16.8c0.7-0.7,2.2-2.4,2.2-2.4l-1.4,0.3c0,0-4.5,0.5-7,2c0,0,1.6,0.6,2.7,0.7C13.9,17.3,15.6,17.4,16.3,16.8z"/><path d="M13.7,36.8c0,0-3.8,3.5-2.7,8.4c0.7,3.1,2,4.4,3.2,6.3c1.2,1.9,3.5,3.8,3.5,3.8s-2-4.5-3.3-9.2   C12.9,41.4,13.7,36.8,13.7,36.8z"/><path d="M37.7,87.1c0,0,1-4.5,1.6-5.4c0.6-0.8,1.3-1.9,1.3-1.9s-0.8-0.3-2.5-2.6c0,0-0.7,1.6-1.9,4C34.9,83.5,34,86,34,86   s-2.8,0-3.9-0.4c-1.1-0.4-2.8,0-3.6,0.1c0,0-2.6-0.8-3.8,2.5c0,0,2.1-1.5,2.8-1c0.5,0.3,0.9,0.4,1.1,0.5c0,0-0.1,0.1-0.2,0.1l0.4,0   c0,0,0,0,0,0l0,0l3-0.2c0,0-3,1.9-3.6,1.9c-0.6,0-1.7-0.1-2.3,0.1c-0.6,0.2-3,1.1-3.1,2.7c0,0,1.3-0.9,3-1.3c0,0,0.3,0.3,2.2,0.2   c1.9-0.1,6.1-2.1,7.8-2.2c1.7-0.1,4.3,1.9,4.3,1.9s0.8,0.9,0.6,2.1c-0.2,1.3,0.6-0.2,0.6-0.2s1-1.5,0.8-2.4   C39.8,89.4,37.7,87.1,37.7,87.1z"/><path d="M42.4,86.8c0,0-1-0.9-1.8-1c-0.8-0.2-1.9,1.1-1.9,1.1s1.3,1.2,1.8,2.2c0,0,1.2-0.1,1.4-0.9c0.2-0.8,2.5,0.9,2.7,2.2   C44.5,90.4,44.8,87.5,42.4,86.8z"/><path d="M35.6,79.9c0,0-2,0.7-3,0.2l0.5,2.4l0.1,2.5L35.6,79.9z"/><path d="M65.3,69.2c-4.7-1.7-24.2-11.5-24.2-11.5s-7.8-4-12.1-11c-4.3-7-1.8-11.3-1.8-11.3s-1.3,6.3,5.8,14.2   c7.1,7.9,32.7,18,32.7,18c2.1,0.8,12.1,7.6,16.5,9.5c2.1,0.9,4.4,0.7,3.4,0.1c-1-0.6-3.9-2.4-3.9-2.4l-0.2-1.1   c2.1,0.7,10.8,4.5,10.8,4.5s-5.7-5.1-15-9.6c-3.5-1.7-8.8-9.2-11.2-11.7c-2.5-2.5-10.4-18.6-12.9-22c-2.5-3.4-7.5-6.8-7.5-6.8   s-2.7-0.6-5.1-0.6c-2.5,0-5.2,1.1-6.6,1.2c-1.4,0.1-2.5-0.2-4.1-1c-1.6-0.8-5-6.7-5-6.7l1.2-0.2c3.3,0.1,2.9-3.1,2.9-3.1   c1.9,0.8,3.7-2.2,3.7-2.2c0.9,2-1.8,3.2-1.8,3.2c0.1,2.2-3.4,3.3-3.4,3.3s2.2,6.4,6.6,5c4.4-1.3,9.8-0.9,9.8-0.9   c-1.5-1.5-5.6-7.7-6.1-8.9c-0.5-1.2-0.7-0.9-1.3-3.2c-0.2-0.7-0.4-1.5-0.6-2.2c-0.9-2.9-2.6-5.6-5.2-7.3c-3.1-2.1-6.5-2.7-10.1-2.1   c-6,1-7.7,5.9-7.7,5.9l-0.3,1.2c0,0,1.7,0.2,2.3,0.7c2.6,2.3,5.6,3.6,5.6,3.6s-2.5,3-3.1,3.7c-1.3,1.5-2.4,1.2-2.4,1.2   c1.2,2.6,2.9,2.2,3,4.2c0.1,2-4.4,12.6-3.3,19.9c1.5,10.3,6.8,18.3,9.3,22.8c2.4,4.5,5.5,13.6,6.9,14c1.4,0.4,3.5-0.2,3.5-0.2   l1.6-2.3c0,0,0,0-1.2,0.1c-0.7,0-1.6-0.6-2.2-1.2c-0.5-0.5-0.8-1.2-0.7-1.9c0.6-4.3,0.3-5.2,0.3-5.2c-3.8-4.3-4.8-10.2-4.8-10.2   c1.1,3.5,4.8,8.2,6,9.5c1.2,1.3-0.3,5.6,0.2,6.5c0.5,0.9,1.4,0.7,1.4,0.7s1.2-0.8,2.8,0c1.6,0.8,1.6,3,3.3,3.4   c1.7,0.4,2.6-1.2,2.6-1.2s2.2,3.9,3.2,1.8c1-2.1,3.3-14.6,3.3-14.6l-0.1,8.1l18.6,7.9c-2.3,0.1-9.1-2.1-9.1-2.1   c5,6.4,18.5,17.6,22.7,19.2c4.1,1.6,3.2-1.4,1.8-3.1c-1.3-1.6-12.4-14-12.4-14s8.9,8.3,10.8,10c2,1.7,3.9,2.9,4.5,2.8   c0.4,0,1.3-0.5,2-0.9c0.4-0.3,0.5-0.9,0.1-1.2L65.3,69.2z M21.2,10.9c-1,0-1.8-0.7-1.8-1.6c0-0.9,0.8-1.6,1.8-1.6   c1,0,1.8,0.7,1.8,1.6C23,10.2,22.2,10.9,21.2,10.9z"/></g></svg>
