<svg xmlns="http://www.w3.org/2000/svg" xmlns:xlink="http://www.w3.org/1999/xlink" version="1.1" x="0px" y="0px" viewBox="0 0 100 125" style="enable-background:new 0 0 100 100;" xml:space="preserve"><g><path d="M24.9,23c1.2-0.3,0.2-4.4,0.7-5.7c0.5-1.2,1.8-2.7,2-3c0.2-1.9,0-3.7-0.3-4C27,10.1,25.9,10,24.8,10   c-1.5,2.4-3.1,5.5-3.1,6.6C21.7,18.6,23.7,23.3,24.9,23z"/><path d="M74.7,48c2.7,0.2,4.4,3.4,4.4,3.4c-1-5-6.7-7.9-8.2-8.6c-1-0.4-1.9-1.7-3.8-3.8c0.1,1,0.2,2.7-0.8,3.4   c-1.5,1.1-2.4,0.4-2.4,0.4s-0.3,1.6-1.8,1.7c-1.5,0.1-4.4-2.5-4.4-2.5S57,42.7,55,42.6c-2-0.1-3.7-1.6-3.7-1.6s-0.9,0.6-2.3,0.4   c0.7,0.7,1.5,1.4,2.1,2.1c1.8,2,4.2,4,5,4.9c0.1,0.1,0.1,0.1,0.2,0.1c2.1-0.5,4.1-0.8,4.9-0.9c1.7-0.2,5.6-0.2,7.4,0.5   c1.9,0.7,3.5,5.4,3.5,5.4c1-2.4-0.7-5.2-0.7-5.2c3.5,2.5,3.5,8.9,3.5,8.9c1.9-2.5,0.7-5,0.7-5c1.7,1.2,2.7,2.7,2.7,2.7   C78.1,50.7,74.7,48,74.7,48z"/><path d="M50.5,51.6c0.2-0.1,0.3-0.2,0.3-0.2c0.7-1.1,2.3-1.9,4.1-2.4c-3-2.7-8.1-8.4-9.5-8.8c-1.8-0.5-5.3-1.5-5.3-1.5   s3.3,0.2,5,0.4c0.6,0.1,1.2,0.4,1.9,0.8c1.4,0.3,3.2,0.5,3.8,0.1c0.2-0.1,0.5-0.1,0.7,0c0.8,0.4,2.4,1.2,3.5,1.3   c1.5,0.2,2.6-0.9,2.6-0.9s3,3,4.2,2.8c1.2-0.2,1.5-1.8,1.5-1.8s1.5,1.3,2.4,0c0.5-0.8,0.6-2.2,0.6-3.3c-0.9-0.9-1.9-1.9-3.3-3   c-5.2-4.4-10.9-6.1-13.8-5.9c-2.9,0.2-7.1,2.4-7.1,2.4l3-3c0,0-3.7,0.5-6.6,3.5c-2.9,3-9.1,6.4-10.8,3.4c-1.7-3,1-8.9,8.9-12.3   c7.9-3.4,6.6-10.9,6.6-10.9C41.6,3.5,35.8,1.4,32.5,2.1c-3.4,0.7-5.6,4.5-5.6,4.5s-0.6,0.9-1.4,2.2c0.9,0,1.9,0.2,2.4,0.4   c0.9,0.5,0.9,2.6,0.9,4.2c0.6-0.3,1.5-0.6,2.7-0.8c3-0.7,3.7-2.4,3.7-2.4s2-1.2,3,1.9c1,3-2.5,6.7-5.9,7.6   c-3.4,0.8-12.4,8.7-11.3,17c1.2,8.2,10.4,10.4,15,10.6c4.5,0.2,7.6,3.4,10.3,4.5c0.6,0.3,1.1,0.4,1.6,0.4l4.5,9.5   c0.1,0.1,0.2,0.3,0.3,0.4c0.1,0.2,0.9,2,0.1,3c-1.1,1.4-12.6,4-13.5,5.5c-0.9,1.5-1.3,7.5-1.3,7.5l-0.6,2.6   c0.1-0.1,0.2-0.2,0.7-0.5c0.8-0.5,1.8-4.2,1.8-4.2l-1.1,5.6c0,0,1.9-2,2.4-3.8c0.6-1.8,0.9-4.7,1.8-5.5c0.1-0.1,0.2-0.2,0.3-0.3   c1-1,2.1-1.7,3.4-2.1l8.3-2.8c0,0,1.4-1,0.4-3.8C54.7,61.2,51.9,54.9,50.5,51.6z M29.4,9.3c-0.6,0-1-0.5-1-1s0.5-1,1-1s1,0.5,1,1   S30,9.3,29.4,9.3z"/><path d="M37.3,80.9L37.3,80.9C37.3,80.9,37.3,80.9,37.3,80.9z"/><polygon points="47.8,55.8 46.8,53.4 44.9,52.9 46.4,66.2 48.6,65.4  "/><path d="M49,78c0,0,0.2-2.9,0-3.9c-0.2-1-0.2-3.4-0.2-3.4l-2,1.2v2.4c0,0-0.7,2.2-0.3,3.2c0.3,1,0.3,1,0.3,1L47.6,93   c0,0,0,1.7-2.4,1.3c-1.9-0.3-4.2-0.7-4.2-0.7s-0.5,1.9-1.5,2.4c0,0,2.4,0.6,3.9,1.9c0.4,0.3,3.2-1.2,5-1.2s1.3-3.4,1.3-3.4   S48.5,87.1,49,78z"/></g></svg>
