<svg xmlns="http://www.w3.org/2000/svg" xmlns:xlink="http://www.w3.org/1999/xlink" version="1.1" x="0px" y="0px" viewBox="0 0 100 125" style="enable-background:new 0 0 100 100;" xml:space="preserve"><g><path d="M28.9,21.5l2.5-1.6c0,0-6.8-2.7-9.4-4.8c0,0-6.9,3.4-10.1,5.2l-1,0.6c-0.3,0.1-0.2,0.5,0,0.6c1.7,0.6,6.2,2,9.3,2.1   C20.2,23.6,24.8,23.3,28.9,21.5z"/><path d="M39.2,49.7c-1,1.2-2.9,1.6-2.9,1.6c-3.5-0.9-4.3-7.5-5-11.8c-0.7-4.3,3.8-9.4,6.8-11.3c2.9-1.9,13-0.3,13.9,0   c0.9,0.3,6.2-0.3,6.2-0.3s-1-2.6-1.7-4c-0.7-1.4-0.5-7.3-1.7-9.4c-1.2-2.1-2.4-3.1-2.4-3.1l2.1-0.3c0,0-1.9-2.8-5.6-4.5   s-5.6-1.4-5.6-1.4l1.4-1.9C41.3,2.9,38,4.4,38,4.4L39.5,2c0,0-4,0.3-9.2,3.1c-5.2,2.8-7.3,8.7-7.3,8.7c1.9,1.7,11.7,5.9,11.7,5.9   s0,0-3.5,2.3s-5.9,2.3-5.9,2.3s0,0-2.8,5.6s-2.9,14.6-2.9,14.6c1.2,12.3,8.2,20.1,10.9,23.1c2.8,2.9,10.9,5.2,10.9,5.2l-1.4-2.3   c4.7,3.5,9.9,2.6,9.9,2.6l-3.8-2.6c0,0,1.4,0.3,4.7,1.4c3.3,1,4.9-0.2,4.9-0.2l-2.1-1C46.1,65.3,39.2,49.7,39.2,49.7z M33.8,15.1   c0,0,0.5-0.9,1.7-1.2c1.2-0.3,2.2,0.1,3.5,1.6c0,0-0.8,1.4-2.9,1.6C34.1,17.2,33.8,15.1,33.8,15.1z"/><path d="M88.4,90.9c-1.7-3.8-15.5-23.6-15.5-23.6S72.4,69.9,70,70c0,0,0,5.6-0.5,7.3L70,78l9.4,15.1c0,0,1.6,3.6,3.1,1   c0,0-2.6-5.2-6.5-11.7c0,0,5.2,6.5,10.4,14l1.6,1.6c0,0-1.3-4.4-2.3-7c-1-2.6-6.4-11.3-6.4-11.3s7.5,8.2,9.9,17.5   C89.1,97.2,90.1,94.7,88.4,90.9z"/><path d="M72.1,65c0,0,0.3,1.2-2.1-10.4c-0.1-0.5-0.2-1-0.3-1.5c-0.4,0.3-1,0.4-1.7,0.5c-0.9,0-2.7-1.1-2.7-1.1   C65,53.9,63.5,55.5,62,56c-8,2.6-17.8-6.8-17.8-6.8c4.5,3.8,10.9,4.8,15,5.2c4.1,0.4,5.4-5,5.4-5c2.2,2.3,3.6,2.2,4.5,1.4   c-2.7-9.4-7.3-15.1-7.9-16.2c-0.7-1.2-2.7-5.2-2.7-5.2l-6.2,0.9c0,0-7.9-2.5-12-1.3c-4,1.2-6.8,6.2-6.8,6.2   c-1.8,3.3,1,12.1,1.8,13.5c0.9,1.4,4.5-1.9,4.5-1.9c2.7,7.4,8,15.4,11.7,18.8c0.7,0.8,8.2,8.8,10.2,11.7c2.1,3.1,3.5,4.2,4.3,4.7   c0.9,0.5,2.1-7.8,1.9-9.2c-0.2-1.4-0.2-1.4-0.2-1.4s-5,0.8-8.5-1.9c2,0.5,4.1,0.7,6.1,0.2c4-1,2.8-3.8,2.8-3.8   C71.5,70,72.1,65,72.1,65z"/><path d="M52.5,77.6c-3.6-1.2-5,0.3-6.1-0.7c-1-1-1-2.3-1-2.3l-2.8-0.9l-1.7,0.3v2.9c0,0-1.2,1.7-2.6,1.7c-1.4,0-3.6-0.2-3.6-0.2   s-3.6-0.5-3.8,1.2c-0.2,1.7,0,2.4,0,2.4s1.2-1.4,2.3-1.4s1.2,1.6,5.2,1.4c4-0.2,4.7-0.5,5.4-2.3c0,0,0.5,1.9,4.7,1.6   c4.8-0.4,3.6-2.4,4.7-1.6c1,0.9,1.4,1,1.4,1S56.2,78.8,52.5,77.6z"/></g></svg>
