<svg xmlns="http://www.w3.org/2000/svg" xmlns:xlink="http://www.w3.org/1999/xlink" version="1.1" x="0px" y="0px" viewBox="0 0 100 125" style="enable-background:new 0 0 100 100;" xml:space="preserve"><g><path d="M15.3,22.3c0,0-1.8,2.6,1.3,4.5c0,0,0.9-3.7,2.6-6L15.3,22.3z"/><path d="M17,29.1c0,0,7.5,0,11.8-5.4s-1-12.5-1-12.5s-3.1-4-7.3-2.5c0,0-1.5,2.7-1.9,3.3c-0.4,0.6-4.1,6.3-4.1,9.2l7.9-2.7   C22.4,18.4,17.8,24.3,17,29.1z M25.3,14.8c0.9,0,1.6,0.7,1.6,1.6c0,0.9-0.7,1.6-1.6,1.6c-0.9,0-1.6-0.7-1.6-1.6   C23.7,15.5,24.4,14.8,25.3,14.8z"/><path d="M28,66.5c3.9,4.9,12.5,7.1,12.5,7.1C28.4,61.4,27.2,52,27.2,48s2.9-6,4.8-12.1c1.9-6.2,13.1-3.1,13.1-3.1s5.4-0.1,7-0.2   c-1.5,0.2-4.1,1.3-6.6,1.3c-2.7,0-9.8-1.3-11.6,2.3c-1.7,3.7-4.4,11.2-4.4,11.2c0,5.2,2.2,10.8,5.7,16.3c1.9,0.8,5.2,1.5,6.2-2.4   c0,0,4.3,2.9,6.6-0.6c0,0,13.9,5.3,16.8,2.6c-1.7-3.9-3.4-7.7-4.1-9c-1.7-2.9-11-17.6-11-17.6C61.1,49.5,66.6,60.6,68.8,66   c-0.6-18.4-6.7-28.3-11.1-35.4c-2-3.1-5.6-5-6.2-9.4c-0.3-2.5-1.1-5.5-1.7-7.7c-0.8-3-2.5-5.8-4.9-7.8c-5.9-5-13.3-3.6-15.2-3.4   c-5,0.4-8.1,4.8-8.1,4.8c5.2-3.3,11.1,6.7,10.8,11.4c-0.4,6.7-5,10-8.3,11.4c-3.3,1.3-7.1,1.3-7.1,1.3c1.2,2.5,3.9,4.4,3.9,4.4   C20.7,41.8,18.3,54.4,28,66.5z"/><path d="M48.7,63.4c0,0-3.5,2.6-6.1,0.9c0,0,6.9,10.1,8.7,14.7c0,0,11,1.4,12.7,0.6c1.3-0.7,3.5-5.8,4.4-8   c-0.5-1.3-1.3-3.1-2.1-5.1C64.9,67.4,60.9,67.9,48.7,63.4z"/><path d="M36.9,66.2c3.5,4.9,7.9,9.7,12.4,14l-7.4-15C41.1,65.8,39.6,66.6,36.9,66.2z"/><path d="M69.5,75.3c-1.2,2.7-3.3,7.2-4.3,7.2c-1.2,0-11.7-0.9-14.6-1.1c10.1,9.3,20.6,16,23.5,16.6c6,1.2-3.3-18-4.1-20.5   C69.8,76.8,69.6,76.1,69.5,75.3z"/><path d="M79.8,76.5c-1.8-3.3-9.4-12.3-9.4-12.3l0.6,7.9l3.3,10c0,0,3.5,2.8,6.8,5.8C89.9,96.2,83.7,83.7,79.8,76.5z"/><path d="M43.1,88.4c1.5-2.5,3.2-8.1,3.2-8.1l-4-4.3l-3.9-1.3c1.3,7.5-0.3,12.9-0.3,12.9s-3.8,0.6-4.8,0.1c-1-0.4-3.6-0.1-4.6,0.9   c-1,1-1,1.7-1,1.7s2-1.2,2.7-1c0.7,0.1,1.3,1,2.3,1c0.9,0,2-0.7,3.6-0.8c-0.6,0.5-1.2,1-1.6,1.1c-1.2,0.3-2.7,0.4-4,1.2   s-1,2.3-1,2.3s1-1.4,2.5-1.6c0,0,1.3,1.6,3.9,0s3.8-1.9,3.8-1.9s1,2.6,1.4,3.5c0.4,0.9,1,2.2,0.7,2.9c0,0,1.2-2,0.9-2.7   c0,0,0.7-0.9,0.6-1.7c-0.1-0.4-0.2-1-0.3-1.7c0.6,0.3,1.3,0.5,2.1,0.3c1.6-0.4,2.3,2.3,2.3,2.3s1-1.4,0-2.5   C46.5,89.9,46.7,88.5,43.1,88.4z"/></g></svg>
