<svg xmlns="http://www.w3.org/2000/svg" xmlns:xlink="http://www.w3.org/1999/xlink" version="1.1" x="0px" y="0px" viewBox="0 0 100 125" style="enable-background:new 0 0 100 100;" xml:space="preserve"><g><path d="M71.4,62.1c-0.8-3-5.4-13.2-5.4-13.2c1.6,2.3,5.4,9.7,5.4,9.7c0.1-0.8,0.1-1.7,0.1-3.2c0-1.5-2.2-7.8-2.2-7.8l-1-0.8   l-0.1,0.8l-0.9-0.3c-1.7-0.5-6.9-3.3-8.5-5.4c-1.6-2.1-5.1-9.2-5.1-9.2s2.9,4.9,5.2,7.9c2.3,3,7.8,4.8,8.3,5.1   c0.5,0.2-0.1-1.5-0.1-1.5c1.6,2.2,3.2,2.3,3.2,2.3s-0.9-7.6-2.8-13.1s-5.3-9.9-7-12.2c-1.7-2.3-5.6-4.7-5.6-4.7   c-2.4-2.4-5.2-5.2-6.9-8.5c-1.7-3.3-5.3-5.2-7.4-5.3c-2.1-0.1-3.9,0.6-3.9,0.6L37.6,2c0,0-0.5,0-2.2,0.6C33.7,3.2,33,4.4,33,4.4   l0.1-1.7c0,0,0,0-2,1.6c-2,1.6-1,3.8-1,3.8c0.9-0.1,2.8,1.4,2.8,1.4s1.7,2.2,2.1,2.5c0.7,0.5,1.9,0.8,2.4,1   c0.5,0.3,1.7,1.4,2.8,1.3c0.1,0,0.2,0,0.3,0c-0.1,0.5-0.3,1-0.5,1.4c-1.3,2.4-4,2.6-4,2.6s-0.1,0.8-0.5,2.9s1,3.5,1,3.5l0.7-2.5   l2.2,2l1.4-2.2l1.8,1.7l2.2-1.6l-2.1,2.8l-1.6-1.3c-0.5,0.7-1.5,2.1-1.5,2.1c-1.2-1-1.8-1.8-1.8-1.8s-1,1.6-0.2,5.4   c0.8,3.8,3.5,6.8,3.5,6.8l-0.3-2.2c2.8,5.4,7.4,9,7.8,10s0.9,5.4,1.6,5.8c0,0-0.6,2.9-1.4,3c-0.8,0.1-3,0-4,0.9   c-1,0.9-1.2,3.9-0.7,4.3c0.5,0.3,2.6,1.4,2.6,1.4s-1.6-2.2-1.3-3.1c0.3-0.9,1-1.3,2.2-1.3c1.2,0,3.1,0.5,3.6,1   c0.5,0.6-0.3,1.8-0.1,2.3s-0.9,1.5-0.9,1.5s1.8-0.1,2.5-1.5s1.3-3.2-0.3-4.7c0,0-0.2-2,0.6-2.9c0.8-0.1,2-3.5,2-3.5   c-0.9-1-3.1-4.4-3.1-4.4c-4.3-6.2-6.2-14.6-6.3-19c-0.1-4.4,4.1-4.5,4.1-4.5s-2.6,0.2-3,3.6s1.4,10.9,5.5,18.1   c4.1,7.1,12.3,13,14.5,16.2c2.2,3.2,4.8,8.6,4.8,8.6C72,64.6,71.4,62.1,71.4,62.1z M37.7,8.3c2.2,0.1,3.5,1,3.5,1   c-0.3,0.4-0.4,1-0.4,1.8c-0.6,0.1-1.9,0.2-2.5,0.5c-0.8,0.4-1.7,0.2-2.3-0.2c-0.6-0.4-1.2-1.6-1.6-2.1c-0.2-0.2-0.2-0.6-0.3-0.8   C35.1,8.2,36.5,8.3,37.7,8.3z M39.5,13.8c-0.5-0.3-1.6-1.1-2.5-1.3c-1-0.2-1.9-0.8-2.3-1.3C34.3,10.7,33.3,9.4,33,9   c0.2-0.2,0.4-0.4,0.8-0.5c0,0.2,0.1,0.6,0.3,0.8c0.3,0.6,1.4,2.1,1.7,2.4s1.5,0.7,2.6,0.3c0.8-0.3,1.9-0.4,2.4-0.5   c0,0.7,0,1.6-0.2,2.4C40.3,14,39.7,14,39.5,13.8z"/><path d="M32.1,16.4c0.3-1.8,2-3.9,2-3.9s-1.4-2.2-3.9-3.2c0,0-1.8,1.6-1.8,4.1s1.3,5.9,4.3,6.9C32.6,20.3,31.8,18.2,32.1,16.4z"/><path d="M39.2,15.3c0,0-2.6-2.9-4.5-2.2l-0.8,1.4l0.2,1.4l-1.4,0.9v0.9c0,0,2.4,0,3.9-0.6C38.2,16.6,39.2,15.3,39.2,15.3z"/><circle cx="37" cy="10.1" r="0.8"/><path d="M58.8,51.3c1.8,22.7,5.1,31.5,5.4,31.3c0.3-0.2-3-29-3-29L58.8,51.3z"/><path d="M67.9,61.2c0,0-3-5.1-5.3-6.4L66,86.9c0,0,0.7,4.4,1.3,3c0.6-1.4-0.7-16.4-0.7-16.4s1.6,10.2,1.8,15.2   c0.2,4.9,1.4,10.1,1.8,9.3c0.5-0.8-0.7-12.4-0.7-17.5S67.9,61.2,67.9,61.2z"/></g></svg>
