<svg xmlns="http://www.w3.org/2000/svg" xmlns:xlink="http://www.w3.org/1999/xlink" version="1.1" x="0px" y="0px" viewBox="0 0 100 125" style="enable-background:new 0 0 100 100;" xml:space="preserve"><g><path d="M38.5,22.4c1.3-2.5,1.3-3.9,0.6-4.6c-0.7-0.7-6.3-1.8-7.7-4c0,0-14.6,23.3-17.5,31.9c0,0-1.3,1.4-1.3,2.2   c0,0.4,0.3,0.9,0.6,1.3c0.2,0.3,0.7,0.3,0.9-0.1c0.4-0.7,1-1.8,1.9-2.6c1.4-1.4,15.2-17.7,16.6-19.5C33.9,25.2,37.2,24.9,38.5,22.4   z"/><path d="M86.9,76.8c-1.1-3.3-4.1-9.5-4.1-9.5l3.5,3c0,0-0.6-3-2.6-6.7c-2-3.7-6.5-6.3-6.5-6.3l5.6,2.6c0,0-3.9-6.5-7.6-8.5   c-3.7-2-10.6-3.3-10.6-3.3H70c-1.3-1.3-5.6-2.8-9.1-3.7c-3.5-0.9-8.2-0.4-8.2-0.4l3.9-0.9c0,0-7.8-0.7-10.6,0.6   c-2.8,1.3-4.5,2.6-4.5-2.4s3.2-9.1,4.8-11c1.7-1.9,7.6-10,5.6-18.4C49.9,3.5,40.6,2,40.6,2s-0.2,2.4-4.3,4.8   c-4.1,2.4-4.1,5.6-4.1,5.6c1.3,2.4,6.2,2.5,8.5,5.4c1.3,1.6,0.2,5.2-3.7,8.7s-5.8,10.1-8.8,22.2c-1.5,6.1,3,13.6,8.2,21.4   c3.7,5.5,14.1,11.4,18.8,12.5l-0.7,10.7c0,0-0.8,1.3-1.3,1.3c-0.4,0-4.5,1.1-5,1.1c-0.6,0-4.6,0.7-4.6,0.7s2.6,0.3,3.3,1.3   c0.7,1,3.5-0.1,7.1-0.4c3.6-0.3,4.5-0.3,4.2-2.6c-0.2-1.7,0.5-8.2,0.9-11.6c3.7-0.1,7.8-0.7,9.2-0.7c1.9,0,11.9,2.4,11.9,2.4   l-2.6-3l-1.3-0.7c0,0-30.4-9.5-31.4-21.5S57.3,49,57.3,49c-8-0.7-13,7.6-9.3,13.7c3.7,6.1,17.8,12.4,17.8,12.4l-0.7-2.4   c1.1,1.3,5.6,4.3,5.6,4.3l-1.9-3.5c0,0,6.5,5.2,6.3,4.6s-2-4.8-2-4.8s10.8,13,11,12.1c0.2-0.9-1.5-4.6-1.5-4.6   c0.4,1.1,3.7,4.1,3.7,4.1v-1.7l-0.9-2.6l1.7,1.1C87,81.6,88,80.2,86.9,76.8z M37.8,13.1c-0.7,0-1.3-0.6-1.3-1.3   c0-0.7,0.6-1.3,1.3-1.3c0.7,0,1.3,0.6,1.3,1.3C39.1,12.5,38.5,13.1,37.8,13.1z"/><path d="M63.4,83.8l-2.8,0.6v7.8c0,0,0.4,1-1.1,1.7l0.1,2.4c0,0,5.6,0.6,5.4-0.1c-0.1-0.7-0.1-1.3-1.5-2.6L63.4,83.8z"/></g></svg>
