<svg xmlns="http://www.w3.org/2000/svg" xmlns:xlink="http://www.w3.org/1999/xlink" version="1.1" x="0px" y="0px" viewBox="0 0 100 125" style="enable-background:new 0 0 100 100;" xml:space="preserve"><g><path d="M34.6,8.6c1,0,1.8-1.1,1.8-1.1s-0.6-0.8-1.7-0.8c-1,0-1.7,0.8-1.7,0.8S33.5,8.6,34.6,8.6z"/><path d="M87.3,88.1L87.3,88.1c-0.9-0.8-2-1.3-3.1-1.6l-1.9-0.6c-6.4-1.3-13.4-5.1-13.4-5.1s-3.2,0-3.6-7   c-0.4-5.9-3.5-20.3-4.6-24.8c2,0.4,5.8,1.2,8.8,2.3c3.2,1.1,7.7,2.8,9.7,3.5c0.9,0.6,2.8,1.9,3.8,2.2c1.3,0.4,1.9-1.9,0-7   C81,44.8,62.5,37.2,58,35.9c-4.5-1.3-8.3-7.2-8.3-7.2c1.9,2.3,7.7,5.3,7.7,5.3c-1.9-7.7-5.5-14.7-6.4-16c-0.9-1.3-0.9-3.8-0.9-3.8   c-0.9-7-4.9-10.4-8.7-11.7c-3.8-1.3-9.2,0.4-11.7,2.1c-2.6,1.7-10.9,1.5-12.4,1.5c-4,0-5.1,2.1-5.1,2.1c0.4,1.1,4.3,1.9,4.3,1.9   c8.9,2.3,11.7,5.8,13,7c0.7,0.7,0.7,2.3,0.6,3.7c-0.9,2-2.6,6.4-2.9,11.3c0,0.8-0.2,1.5-0.4,2.1c-0.4,1.4-1.2,4.7-1.4,11.7   c-0.1,5.3,0.4,22.3,10,34.2c-1.1,0.4-4.5,1.7-5.5,1.4c-1.3-0.3-3.7-0.8-5,0.2c-1.3,1-1,1.8-1,1.8s1.3-1.1,2.2-0.2   c1,1,4.6,0.8,4.6,0.8l-2.1,1.1c0,0-2.4,0.8-1.9,3c0,0,2.2-1.4,3.7-1.3c0,0,2.1,0.6,5-0.8c2.1-1,3.4-1.7,4-1.9   c1.4,1,6.7,4.6,13.7,5.2c0.3,0.2,0.8,0.6,1.7,1v3.9c0,0-7.7,1.6-9.7,1.4c-2.1-0.2-3,1.6-3,1.6s1.9-0.2,3,0c1.1,0.2,2.7,0.8,5.9,0.6   c3.2-0.2,8.5-0.5,8.5-0.5s1.3,0.2,1.3-1.6c0-1.1,0-3.4,0-4.8c0.1,0,0.1-0.1,0.2-0.1c0.2-0.1,0.3-0.4,0.3-0.6V85   c0.6-0.7,1.5-1.3,2.7-1c2.3,0.6,7.2,5.8,9.2,6.4c1.9,0.6,8.7,2.6,9.4,2.3c0.5-0.2-4.5-3.2-6.4-4.3c2.9,1.5,8.5,2.8,8.5,2.8l2.4-0.7   C87.9,90.2,88.1,88.8,87.3,88.1z M20.8,7.1c3.5,0.8,6,1.4,6,1.4c-3.1-0.6-12-0.5-12-0.5S17.4,6.3,20.8,7.1z M20,10.4l-5.8-1.8   C16.8,8.6,27.1,9,27.1,9L20,10.4z M50.1,37c0.9-1.1,7.7,1.1,16.6,4.9c8.9,3.8,11.3,6.8,12.1,8.5c0.4,0.9,0.4,2,0.2,2.8   c-2.2-0.8-6.2-2.2-9.1-3.3c-3.7-1.3-8.5-2.2-9.9-2.5l-1.8-1.3C55.6,45,49.3,38,50.1,37z M32.8,5.9c0.3-0.5,0.9-1,1.3-1.5   c1.1-1.3,4.5-1.8,4.5-1.8c2.4-0.2,4.8,3.1,3.1,2.9c-2.4-0.3-4.5,1.3-4.5,1.3s0.5,2.5-2.8,2.7c-0.8,0-1.2-0.5-1.5-0.9   C31.5,7.1,32.3,6.7,32.8,5.9z M53.4,88c-7.6-0.6-13.4-5.1-13.4-5.1C27.2,71.5,26.7,51.7,26.8,45.9c0.1-6.8,0.9-9.9,1.3-11.2   c0.2-0.7,0.4-1.6,0.4-2.5c0.2-3.7,1.4-7.2,2.3-9.4c2.2,0,7.1,0.6,8,6.7c1.3,7.9,4.9,15.1,6.2,15.1s0.4-5.5,1.7-7.2   c1.3-1.7,3.2,3.4,3.2,3.4S51,48.2,52,58.5c1.1,10.2-0.9,13.4,2.3,16.8c2.3,2.5,4.3,7.3,5.2,9.8v4.8c-0.4,0.1-1.2,0.1-2.5-0.2   c-2.3-0.6-3.3-1.5-3.3-1.5C53.7,88.1,53.5,88,53.4,88z"/></g></svg>
