<svg xmlns="http://www.w3.org/2000/svg" xmlns:xlink="http://www.w3.org/1999/xlink" version="1.1" x="0px" y="0px" viewBox="0 0 100 125" style="enable-background:new 0 0 100 100;" xml:space="preserve"><g><path d="M6.9,13.7c0,0-3.7,1.5-4.5,3.8c0,0-0.6,1.2,0.8,0.8c1.4-0.4,2.4-1.4,4.7-1.2c0,0,1.7-2.1,1.7-2.5   C9.5,14.1,8.4,13.8,6.9,13.7z"/><circle cx="16.8" cy="10.8" r="0.8"/><path d="M97.2,90.4c-2.3-4.9-5.2-6.2-5.2-6.2s-5.5,1-15.6-3.2c0,0,14.3,10.7,15.6,11C93.4,92.3,99.5,95.2,97.2,90.4z"/><path d="M42.3,92.3c-1.1-0.8-0.5-1.3-2.6-1.5c-1-0.1-1.8-0.1-2.4-0.1c2-2.3,5.1-5.5,5.1-5.5l0,0c0,0,7.1-5.2,6.8-10.4l4.5-2.6   c0,0-24.3-7.8-25.6-26c0,0,2.3,7.5,11,14.7c2.3,0.6,7,1.6,9.1,0.5c0,0,2.8,0.4,6.9-3.7c0,0,4.5-2.8,5-4.5c0.4-1.7,0.4-2.8,0.4-2.8   s3.2-0.6,3.7-1.5c0.2-0.5,0.7-1.5,1.1-2.4C58.9,38.9,50.8,31.2,46,28.7c-8.4-4.2-13,3.6-14.6,5.2c-0.7,0.7-1.6,1.8-2.4,2.8   c-1.2,1.5-3,2.3-4.8,2.1l-0.9-0.1c0,0,3.2-0.6,5.2-4.2s7.1-7.8,7.1-7.8c3-1.7,6.9-1.1,6.9-1.1s-7.1-4.4-9.3-9.4   C31.1,11.3,27,1.4,19.4,2c-7.6,0.6-9.9,8-9.9,8c-1.1,1.5-1.7,2.8-1.7,2.8s2.8-0.4,3.5,1.3c0.2,0.6-1.9,2.8-1.9,2.8   c3.7-0.6,6.3,2.8,6.3,2.8s2.2,1,4.6,11.3c0,0,0.8,7.2,0,12c-1.1,6,3.3,17.4,10.7,22.2c8.3,5.4,7.4,5.7,7.4,5.7s2.8,5.2,1.9,8.4   c-1,3.6-1,3.6-1,3.6s-6,7.3-6.5,7.6c-0.5,0.3-4.5,1.5-5.4,1.5c-0.8,0-3.6-0.4-4.4,0c-1.3,0.7-1.6,2.3-1.6,2.3l1.7-1.1   c0,0,3.2,1.2,5.3,1.1c0,0,2.1-1.8,3.7-1.8c0,0-2.6,1.6-3.1,2.9c-0.5,1.3,0.5,2.6,0.5,2.6s0.2-1.6,1-1.9c0.7-0.3,3.5-1.4,4.7-2.4   c3.5,0,3.1,0,3.9,0c0.5,0,2.6-0.8,3.2,0.3c0.6,1.1,0.6,1,0.6,1S43.4,93.1,42.3,92.3z M16.8,12.7c-1,0-1.9-0.8-1.9-1.9   s0.8-1.9,1.9-1.9c1,0,1.9,0.8,1.9,1.9S17.9,12.7,16.8,12.7z"/><path d="M54.1,87.6c-2.4-0.2-3.6-1.5-4.9-1.6c-1.3-0.2,0.8-1.6,0.8-1.6s2.1-1.9,3.2-4.7c1.1-2.8,0.2-5.4,0.2-5.4l-2.8,1.5   c0,0,1,2.3-1.1,5.5c0,0-2.3,3.1-4.1,3.7L45,85.8c-0.8,1.1-2,1.7-3.4,1.7l-1.8,2.1c0,0,5,1,7.3-0.6c0,0,2.1-0.3,2.8,0   c0.6,0.3,0.6,1.3,3.1,1.5c2.4,0.2,2.4-1.3,4.1-0.6C57,89.7,56.5,87.8,54.1,87.6z"/><path d="M65.8,66.4c0,0,10.7,2.3,8.8-5.5c-0.7-2.8-3.6-7.3-7.3-12c-0.8,1.2-2.4,3-5,2.8c0,0,1.5,3.7-6.1,8c0,0-2.9,3.6-7.5,4   c0,0-2.4,0.6-5.1,0.4c4.5,2.8,10.1,5.4,17.3,7.1C60.9,71.2,65.5,70.6,65.8,66.4z"/><path d="M87.3,81.4L70.3,70.6c4.9,2.3,17.5,9.3,21.2,11.4c4.7,0.5,8.6,0.3,3.2-3.9c-5.3-4.1-17.8-16.5-17.8-16.5   c0.6,9.1-9.1,7.1-9.1,7.1c0,2.3-4.2,3.9-4.2,3.9s16.5,8.1,20.4,8.4C84.7,81,85.9,81.2,87.3,81.4z"/></g></svg>
