<svg xmlns="http://www.w3.org/2000/svg" xmlns:xlink="http://www.w3.org/1999/xlink" version="1.1" x="0px" y="0px" viewBox="0 0 100 125" style="enable-background:new 0 0 100 100;" xml:space="preserve"><g><path d="M79.6,68.9c-7-2.3-10.2-8.4-10.2-8.4c1.5,2.3,7,4.2,7,4.2c-3.5-16.3-21-31.3-23.9-33c-1.2-0.7-2.2-1.4-2.9-2.1   c-0.7-1.1-1-2-1-2.3l0-6.8C47.6,6.8,39.3,2,31.8,2c-8.7,0-10.2,8-10.2,8.1c0,0.1,0,0.2,0,0.3c-0.1,1-0.2,2-0.1,2.8   c1.8-3.6,8.2-7.2,12.1-6.9c4.7,0.4,10.7,6,11.7,8c1,1.9,0.4,2.9-1.7,7.4c-2.1,4.5-10.1,5.8-12.8,5.8c-1.5,0-3.2-0.3-4.3-0.6   c-0.1-0.1-0.1-0.2-0.2-0.3c-0.3-0.2-0.8-0.2-1,0.2c-0.1,0.1-0.2,0.3-0.3,0.4c-0.2,0.2-0.4,0.5-0.5,0.7c-2.3,3.5-5.5,9.4-5.7,20.3   c-0.3,12.7,13.2,25.4,17.6,27.8c3.8,2,7.9,6.3,8.6,7.1c0.3,0.9,0.8,2.4,0.8,3.5c0,1.9,0,6.8,0,6.8s-3.9,0.6-6.4-1   c0,0-3.3,1.4-6.8,0.4c0,0-0.2,1.7-2.3,3.9c0,0,5.1,0.6,7.4,1.4c0,0,1.9-0.2,6.4-0.8s6.4-1.6,6-3.9C49.4,91,50,84.4,50,84.4l0.1-1.6   c0.6-0.1,1-0.3,1.4-0.6c0.6-0.5,2.6-0.8,4.9-1.1c1.7,0,3.6-0.1,5.4-0.3c4.7-0.6,14.6-4.7,14.6-4.7c-2.3,0-7.9-2.3-7.9-2.3   c6.7,0.6,19.2,0.3,19.2-0.6S86.6,71.2,79.6,68.9z M50.6,81.1c-0.6,0.5-3.1,0.8-4.9,0.8c-1-1.1-5-5.2-8.9-7.3   c-4-2.1-17.1-14.6-16.8-26.4c0.1-5.9,1.2-10.3,2.4-13.6c1.5,1.2,3.6,2.7,4.1,3.1c0.9,0.6,8.4-1.2,10.8,7.6   c1.9,7.2,12.9,26.9,15.3,35C51.7,80.5,51,80.8,50.6,81.1z"/><path d="M28.2,22.2c1-1.5-3.6-5.7-4.8-2.8l1,2.2C24.4,21.7,27.2,23.7,28.2,22.2z"/><path d="M31.6,14.3c0.1,0.6,0.6,1.2,1.3,1.2c0.9,0,2.1-0.2,3.3-1.6c0,0,4.1,0.2,6,1c0,0-3.9-2.1-7.2-2.6c0,0,0,0,0,0   c0-1-0.8-1.8-1.8-1.8c-1,0-1.8,0.8-1.8,1.8c0,0.1,0,0.1,0,0.1c0,0,0,0,0,0L31.6,14.3z"/><path d="M77,59c0,0,1.7,4.9,1.7,6.6c0,0,8.4,3.5,8.9,3.9s0.6,0.4,0.6,0.4l3.7-0.6C92,69.3,84.2,65.4,77,59z"/><path d="M33.6,90.8c1.2,0,7.6,0.7,9.5,0c0,0,0.7-0.7,0.7-1.7s-0.3-5.2-0.3-5.2s-1.7-2.2-2.8-2.6c0,0,0.1,5.7-0.1,6.4s-5,0-6.3-0.1   s-5,1.5-5,1.5s1.7,2,0.4,3.4C29.8,92.3,32.5,90.8,33.6,90.8z"/><path d="M21.8,19.9l-6,1.4l0,0c1.5,3.4,6,4.8,7.2,5.2c0.1,0,0.1,0,0.2,0c0,0,1.2-1.4-0.4-4.7C22.5,21.2,22.2,20.6,21.8,19.9z"/><path d="M15.4,19.9c1.1-0.4,3.8-1.5,5.3-2.2c-1-2.2-1.6-4.8-0.4-8.1C18.8,11.2,14.8,16,15.4,19.9z"/><path d="M14.7,21.6c-1.3,0.3-3.6,0.8-6.7,1.6c0,0,5.4,3.4,12.1,3.5C18.1,25.8,15.8,24.2,14.7,21.6z"/><path d="M18.2,10.5c-1.3,0.6-2.9,1.4-3.9,2.3C9,17,8,23.2,8,23.2s4.1-1.9,6.3-2.9C13.6,16.7,16.2,12.9,18.2,10.5z"/></g></svg>
