<svg xmlns="http://www.w3.org/2000/svg" xmlns:xlink="http://www.w3.org/1999/xlink" version="1.1" x="0px" y="0px" viewBox="0 0 100 125" style="enable-background:new 0 0 100 100;" xml:space="preserve"><g><path d="M10,23.7c0,0-2.7,0.5-4.3,1.6c-0.6,0.4-2.8,1.7-3.7,3.5c0,0,1.2,0,2-0.1c0.8-0.1,1.3-0.1,2.8-0.8c1.5-0.7,3.9-0.3,3.9-0.3   s3-1.4,4.1-2.2L10,23.7z"/><path d="M36.5,36.1c1.5,2-1,3.6-1,4.4c0,0.8,1.3,1.3,1.3,1.3c5.8,1.3,9.5,4.3,11.7,6.6c0.9-0.3,1.8-0.7,2.6-1.1   c3.1-1.7,16.4-1.8,16.4-1.8s0,0,2,0c1.4,0,3.4-0.5,4.6-0.8c0.5-0.1,0.7-0.7,0.4-1.1l-0.7-1c0,0-0.9-0.4-4.2-1.3   c-3.3-0.9-9.6-6.4-13.6-9c-3.4-2.2-10.4-4-14-4.9C35,31.5,35.2,34.2,36.5,36.1z"/><path d="M96.3,53.6c-0.3-0.2-0.6-0.4-1-0.5c-1.5-0.3-4.9-1.6-4.9-1.6l5.2-0.4l-1.5-1c-1.2-0.9-2.6-1.5-4-2   c-5.9-1.8-13.8-4.9-13.8-4.9l0.1,0.3c0.3,0.9-0.2,2-1.2,2.2c-1,0.3-2.6,1-5,1.2c-6.1,0.4-11.5-0.1-14.9,0.4   c-1.9,0.3-4.5,0.8-6.8,1.2c1.5,1.6,2.1,2.8,2.1,2.8c-0.7-0.9-1.7-1.8-2.8-2.7c-0.2,0.1-0.5,0.1-0.7,0.1c0.2-0.1,0.4-0.1,0.7-0.2   c-4.1-3.1-10-5.5-11.9-6.1c-2.4-0.7-2.9-2.2-2.9-2.2c3.3-1.5,2.2-3.5,2.2-3.5c-1.8-2-0.6-5,0.7-6.6c0.7-0.9,2.4-2.3,3.8-3.4   c-2.4-0.7-4.5-1-4.5-1c-0.3-6.9-5-11.8-8.6-12.2c-2.6-0.4-6.5,0.5-8.7,1.7c-1.2,0.7-2.4,2.2-3.3,3.6c-0.9,1.3-1.8,1.9-2.8,3.1   c-0.4,0.4-0.5,0.7-0.4,0.9c0.2,0.6,4.2,0.8,5.1,2.1c0.6,0.8-4.7,3.5-4.7,3.5c2.2,0.7,5.1,4.3,5.1,4.3c-1.8,4.8-2.4,11.3-1.1,14.7   c4.1,10.7,11.8,13.7,18.5,14.6c-0.1,0.3-0.2,0.6-0.2,1c0,0.5,0.1,1,0.2,1.3c0.3,0.8,0.4,1.6,0.4,2.4v6c0,0-0.3,2-1.7,2   c-1.4,0-3.6-0.9-3.6-0.9s-2.8,1.7-4.6,1.5c-1.9-0.2-1.4,1.5-1.4,1.5s1.2-0.7,2.1,0c0.9,0.7,2.1,1.2,2.4,2.6c0,0,6.5-1.7,7.4-2.8   c0.9-1,1.9-0.9,1.9-4v-4.2c0-1.7,0.3-3.4,0.7-5.1c0.1-0.3,0.1-0.7,0-1.2c0.7,0,1.3,0.1,2,0.1v2.6c0,0.8-0.2,1.5-0.5,2.3   c-0.2,0.4-0.3,0.9-0.3,1.5c0,0.6,0.1,1.1,0.3,1.4c0.3,0.8,0.4,1.7,0.4,2.5v6.4c0,0-0.4,2.2-1.8,2.2c-1.5,0-3.9-0.9-3.9-0.9   s-2.9,1.8-5,1.7c-2-0.2-1.5,1.7-1.5,1.7s1.3-0.7,2.2,0c0.9,0.7,2.2,1.3,2.6,2.8c0,0,7-1.8,7.9-2.9c0.9-1.1,2-0.9,2-4.2v-4.4   c0-1.8,0.3-3.7,0.8-5.4c0.1-0.5,0.1-1.2-0.2-2c-0.3-0.8-0.5-1.6-0.4-2.5l0.1-2.4c0.1,0,0.3,0,0.4,0c6.6,0.4,15.8-2.2,23-3.7   c7.2-1.5,18-3.1,18-3.1c-5-0.7-18-5.7-18-5.7c19.1,4.4,31.3,6.3,32,5.7C98.4,55.4,97.1,54.2,96.3,53.6z M19.4,21.6   c0,0,0.3-1.3,1.9-1.5c1.7-0.2,2.2,1.1,2.2,1.1S21.5,24.3,19.4,21.6z"/></g></svg>
