<svg xmlns="http://www.w3.org/2000/svg" xmlns:xlink="http://www.w3.org/1999/xlink" version="1.1" x="0px" y="0px" viewBox="0 0 100 125" style="enable-background:new 0 0 100 100;" xml:space="preserve"><g><path d="M98,85.7c-0.2-1.5-5.8-8.1-11-15.1l-6.8-2.9c0,0,3.3,3.3,5.6,7.3c2.3,3.9,6.8,11,6.8,11l2.9,1.2l-3.7-7.3l4.4,6   C96.1,85.9,98.2,87.2,98,85.7z"/><path d="M55.1,44.7c2.5,3.1,19.1,18,21.8,19.3c2.7,1.2,9.7,4.6,9.7,4.6l-6.8-6.8c0,0,8.3,6,9.9,6.6c1.7,0.6-1.7-5.4-6-9.7   c0,0,7.5,6.4,8.9,5.8c1.5-0.6-5.8-10.2-5.8-10.2s3.9,3.3,6,3.3c2.1,0-8.5-14.3-15.3-19.1c-6.8-4.8-9.6-7.9-17.5-10.8   c0,0-5.4-3-5.7-4c-0.1-0.3-0.2-0.6-0.3-1l1.9,0.5c-1.4-1.8-3.2-3.4-4.4-4.4c-3.5-4.2-9.5-7.9-14.8-4.8c0,0-1.4,0.8-2.2,1.8   c-15.9,0-24.8,7.7-28.4,11.4c2.1-0.9,4.5-1.3,5.9,0.1c0.8,0.8,1.1,1.7,1,2.7c0,0.4-0.1,0.7-0.3,1c8.3-3.7,17.8-5.2,21-5.6   c-0.1-0.9-0.3-1.8-0.6-2.6c-0.4-1.2,0.3-3.8,0.9-5.5c0,0,0,0,0,0l0.6-1.6c0,0,2.9,1.3,5.7,3.2c2.8,1.9,4,3.3,5.4,6.7   c1.4,3.4,1.9,5.6,0.3,7.3c-1.2,1.3-4.1,5-5.2,8.1c-0.7-1.9-2.4-6.2-3-6.9c-1.8-2.4-3.7-3.6-4.6-4c0.7-1.1,0.7-2.3,0.7-2.3   s0-0.2,0-0.6c-9.8,0.3-17.8,3.4-23.5,6.5c0,0-0.1,0.1-0.1,0.1c-0.1,0-0.1,0.1-0.2,0.1c-3.7,2-6.4,4.1-7.9,5.3c0,0,0,0,0,0   c7.6-3.4,26.7-6.6,29.2-7.7c0.5-0.2,0.9-0.5,1.2-0.8c0.8,0.5,3.2,2.1,4.3,3.9c1.1,1.9,2.9,6.6,3.4,7.9c0,0,0,0.1,0,0.1   c0.1,0.5,0.3,1.1,0.4,1.8c0.9,4.2,5.6,9.6,8.4,12.3c2.8,2.6,8.2,4.9,8.2,4.9l-1.5-3.1c0,0,3.1,2.9,3.7,2.9c0.6,0,5.2,3.1,5.6,4.8   c0.1,0.4,0.4,0.7,0.7,0.9c-0.2,0.8-0.5,2-1,2.1C64,69.2,59,70.9,59,70.9s-3,2.2-2.8,3.6c0.2,1.4,0.2,1.4,0.2,1.4s0.9-2.3,2.2-2.2   s2.3-0.8,4.2-1.1l0.6-0.1c0.7-0.1,1.4-0.4,2-0.8c0.5-0.3,1.2-0.6,2-0.7c1.7-0.2,3.7,0.8,5.7,1.1c2,0.3,3.1,2.3,3.1,2.3   s0.3-0.9-0.2-1.7c-0.5-0.8-0.5-2.2-1.7-2.6c-1.1-0.4-4.3-1-4.8-3.1c0.1,0,0.2-0.1,0.2-0.2c1.2-1,1.7-1.2,2.7-4.1   c0,0-18-14.7-19.5-17.8c-1.5-3.1,0-8.3,1.5-9.7C54.5,35.2,52.6,41.6,55.1,44.7z"/><circle cx="37.1" cy="21.5" r="1.9"/><path d="M9.3,32.5C9.3,32.5,9.3,32.5,9.3,32.5c0.6-0.4,2-1.6,2.1-2.8c0.1-0.5-0.1-1-0.6-1.5c-1.3-1.4-4.7,0.2-7,1.6   C3,31.4,1.9,34.3,2,38.3C3.9,36,6.5,34.1,9.3,32.5z"/></g></svg>
