<svg xmlns="http://www.w3.org/2000/svg" xmlns:xlink="http://www.w3.org/1999/xlink" version="1.1" x="0px" y="0px" viewBox="0 0 100 125" style="enable-background:new 0 0 100 100;" xml:space="preserve"><g><path d="M33.5,32.8c0,0-2.1,4.3,1.9,8.1c4.1,3.8,10.9,15.6,16.4,14.5c0,0,2.6,0,1.3-3.6c0,0,3.8,5.6,6.8,5.6c3,0,1.7-4.5,1.7-4.5   s1.7,3.1,4.3,4.8c1.1,0.8,2.7,0.5,3.3-0.7c0.2-0.4,0.3-0.8,0.1-1.2c0,0,3,3.6,4.7,3.4c1.7-0.2,3.4,1.5,7.3,2.8   c3.8,1.3,4.7,1.3,4.7,1.3s-6.6-15.2-9.6-19.4s-10.3-8.2-11.3-8.5c-4.3-1.4-6.1-1.1-20.3-5.7c-0.7-0.2-1.3-0.3-2-0.4   C40.6,29.2,35.8,29.5,33.5,32.8z"/><path d="M87.5,74.6c1.1,0.2,1.3-2.1,1.3-2.1l-3-7.3c-3.2-0.6-10.9-4.1-10.9-4.1C71.7,61.2,70,59,70,59c-2.1,3.2-6.8-1.1-6.8-1.1   c-1.7,3.4-8.5-1.5-8.5-1.5c-3,3.6-8.8-0.9-8.8-0.9s5.6,9.6,7.7,12c2.1,2.3,5.6,1.9,5.6,1.9c-1.3-1.1-2.1-7-2.1-7l0.6,2.1   c1.9,4.9,7,6.8,7,6.8c-0.9-0.9-2.1-6.4-2.1-6.4c1.9,7.3,7,6.8,7,6.8c-1.3-1.9-2.3-7.3-2.3-7.3c4.1,10,6.8,7.9,6.8,7.9   c-1.1-1.3-1.5-7-1.5-7c1.3,3.2,3.2,8.5,5.1,8.5s0.2-8.1,0.2-8.1s2.8,9,5.3,9.4c2.6,0.4,2.1-3.2,2.1-3.2S86.5,74.4,87.5,74.6z"/><path d="M60.4,71.6c0,0-5.8,0.2-9.4-4.3c-3.6-4.5-9-14.9-9-14.9s-5.6-8.5-7.9-9.8c0,0-0.6,10.3,0.4,12.6c1.1,2.3,3.4,7.9,5.3,10.3   c1.9,2.3,10.3,5.6,12,10.9c1.7,5.3,1.9,10.9,1.9,10.9s1.6-4.9,1.3-8.4C56,82.4,57.7,90,57,91.5c0,0,3-6.6,1.5-13.2   c0,0,1.7,4.1,2.3,9.2C60.8,87.4,62.3,76.7,60.4,71.6z"/><path d="M58.1,93.6l-6.8-2.1c0,0-1.9-2.8,0.4-5.6c0,0-0.6-9-2.8-10.9c-2.1-1.9-4.9-5.1-8.3-5.8c0,0,1.5,3.6,2.1,6.4   c0.6,2.8,1.1,8.3,3,9.4c0.4,0.2,0.8,0.4,1.3,0.5c0.1,1.4,0.5,5.4-0.1,5.9c-0.6,0.6-8.8,1.7-9.8,1.7s-3.6,0.4-3,3.8   c0,0,0.9-3.4,3.4-1.9c0,0-1.5,0.9,3.2,0.9s7.3-1.3,7.9-1.3c0.6,0,2.8,1.7,7.5,1.1c4.7-0.6,5.3,0.6,5.3,0.6S60.6,94.3,58.1,93.6z"/><path d="M91.8,87.4c0,0-0.6-5.6-1.5-8.3c-0.9-2.8-1.3-3.6-1.3-3.6s-1.9,0.9-2.8-0.1c0,0-0.5,1.2-2.2,1.5c-1.7,0.3-4-2.1-4.2-3.2   c0,0,0.1,1.5-1.5,2c-1.6,0.5-3.4-1.8-3.4-1.8s-2,1.5-4.1-0.4c0,0-3.3,0.5-5.2-1.1l0.7,1.1L63,72.7c0,0,0.6,4.7,0.2,6.8   c0,0,2.8,2.1,3.8,2.1c0,0,2.6,2.8,4.1,2.8c0,0,2.8,3,5.6,3.6l-1.7-3.4c0,0,3,3.2,6.8,7c3.8,3.8,13.2,8.5,13.5,5.1   C95.4,93.4,91.8,87.4,91.8,87.4z"/><path d="M6.6,6.5c-2,1.1-2.4,4.1-1.1,7c0,0,0.8-4.3,3.5-3.8l2-0.2c0,0,1.3-1-0.1-3.2C10.9,6.2,9.5,4.8,6.6,6.5z"/><path d="M8.1,10.4c-0.6,0.3-1,0.7-1.3,1.3l0,0c0.4-0.6,3.8-0.5,3.8-0.5l0.4-1c0,0-2.1,0.1-2.5,0.1C8.4,10.3,8.3,10.3,8.1,10.4z"/><path d="M33.2,56.2c-1.1-2.8-0.4-15.4-0.4-15.4c-1.1-1.9-1.5-5.1-1.5-5.1c0-8.3,7.3-8.1,7.3-8.1c-2.3-7-9.2-6-9.2-6   s4.3-2.3,4.7-7.3C34.9,4.3,26.6,2,23.6,2c-3,0-11.5,3.8-11.5,3.8c1.5,3.2-0.2,5.8-0.2,5.8l3.6,1.3c4.7,1.5,3.6,4.1,3.6,4.1   c-3.4,6.6-3.4,7.9-0.4,14.7c2.1,4.8-2.6,4.5-2.3,10.5c0.2,6,7,10,9.4,11.1s10,8.5,10,8.5S34.3,59,33.2,56.2z M23.1,7.6   c0,0.3,0,1.4-1.6,1.3c-1.4-0.1-1.2-1.9-1.2-1.9s-0.1-0.5-2.5-0.1c0,0,1.5-1.2,3.2-1.2C22.7,5.6,23.1,6.9,23.1,7.6z"/></g></svg>
