<svg xmlns="http://www.w3.org/2000/svg" xmlns:xlink="http://www.w3.org/1999/xlink" version="1.1" x="0px" y="0px" viewBox="0 0 100 125" style="enable-background:new 0 0 100 100;" xml:space="preserve"><g><path d="M27.6,16.1c0,0,0.3-2,1.5-3.3l-1-1.3c0,0-4.8-1-5.3-1.3c0,0-5.6,1.5-6.8,1.2c-1.2-0.3-3.2-0.3-4,2.2l-0.5,1.5   c0,0,4.2-0.8,8.1-0.3C23.6,15.1,27.6,16.1,27.6,16.1z"/><path d="M79.8,84c0,0-5.2-0.3-9.1-0.8l7.3,8.8c0,0,2.5,2.7,5.2,3.2L77.6,87l8.5,9.1c0,0,1,1.3,2.3,1.8C89.7,98.5,79.8,84,79.8,84z"/><path d="M55.6,80l0.3,9.2c0,0,1.8,0.4,2-1.4c0.2-1.9-0.1-7-0.1-7L55.6,80z"/><path d="M49.7,85.5l-2.1-1.2c-0.4,0.7-3.3,0.4-3.3,0.4c-0.1,0.7-1.8,1.8-1.8,1.8s3.9,0.2,4.8,0.4S49.7,85.5,49.7,85.5z"/><path d="M78.4,78.7c-0.8-5.5-3-13.5-3-13.5c-0.8-1.8-7-9.3-7-9.3c2.5,6.3,1.8,13.6,1.8,13.6s-4.7,0.3-16.8-2.2   c-0.9-0.2-1.7-0.4-2.5-0.6c4.4,5,13,11.7,16.4,14.3c5.3,0.5,11.3,0.6,11.3,0.6L78.4,78.7z"/><path d="M47.8,65.6c-8-3.7-11.4-10.5-12.9-13.9c-1.8-4.2-2-11.6-2-11.6c1,6.6,5.8,15.3,5.8,15.3C47.4,68.6,69,67.8,69,67.8   c0-8.3-4.3-18.4-4.3-18.4c3.8,3.5,9.6,12,9.6,12C70,42.2,59.2,30.7,55.8,28.2c-3.3-2.5-7.3-4.2-7.3-4.2c-0.3,0.6-0.6,1.1-1,1.5   c3.5,2.7,6.9,9.3,6.9,9.3c-1.4-2.3-6.8-6.6-8.7-8c-3.4,1.8-8.1,1.9-8.1,1.9c4.2-0.7,8.6-4,8.6-4c5.5-9.1,0-17.9-4.5-21.1   c-4.5-3.2-12.5-1-15.1,0.5c-2.7,1.5-2.5,5-2.5,5l5.2,1.2c0,1,2.5,2.5,2.5,2.5c-1.7,0.3-2.8,3.7-2.8,3.7c2.5,1.8,6.3-0.3,6.8,0.5   c0.5,0.8-1,1.3-4.7,2.2s-9,3-11.3,7.6c-2.3,4.7,1.8,10.5,4.2,14.3c2.3,3.8,3.7,11.1,3.7,11.1c4.5,15.7,14.6,22.5,23.1,25.5   c0.2,2.9,0.7,8.6,0.2,9c-0.7,0.5-2.5,1.7-3.5,1.7c-1,0-4.3-0.3-5.6-0.5c-1.3-0.2-4.3,3-4.3,3s2.3,1.7,2.2,3c0,0,2.2-0.7,4.8,0.8   c0,0,5.2-4,7.1-4.1c1.9-0.1,3.2-0.2,3.2-1.7c0-0.1,0-0.2,0-0.3c0-0.1,0-0.2,0-0.3c0-1.4-0.3-6.7-0.4-9.5c3.8,1,7,1.4,8.8,1.7   C56.9,76.6,48.8,66.8,47.8,65.6z M31.9,11.1c-0.7,0-1.3-0.6-1.3-1.3c0-0.7,0.6-1.3,1.3-1.3c0.7,0,1.3,0.6,1.3,1.3   C33.2,10.5,32.6,11.1,31.9,11.1z"/></g></svg>
