<svg xmlns="http://www.w3.org/2000/svg" xmlns:xlink="http://www.w3.org/1999/xlink" version="1.1" x="0px" y="0px" viewBox="0 0 100 125" style="enable-background:new 0 0 100 100;" xml:space="preserve"><g><path d="M13.1,16.6c0,0,1.5-1.6-1.2-3.6c0,0-5.3,2.2-6.7,3.6S2,21.2,2,21.9c0,0,5.8-3.4,8.4-4.4C13.1,16.6,13.1,16.6,13.1,16.6z"/><path d="M17.2,18.8l-3-1.3c-2.4,0-9.6,3.8-9.6,3.8l-1.3,0.9c3.4,0.9,8.8-1.2,8.8-1.2l4.4-0.4L17.2,18.8z"/><path d="M49.8,62.7c-5.3-1.9-15.1-10.2-15.1-10.2l-3.9-0.5c-8.1-3.9-8.8-10.4-9.3-11.4c-0.5-1.1-1.1-4.9,1.4-7.2   c2.5-2.3,7.7-0.4,7.7-0.4s-3.3-0.5-6.7,1.8c-3.3,2.3,1.6,14.1,6.7,15.5c5.1,1.4,3-0.7,3.9-4.4c0.9-3.7,4.6-1.6,11.1-2.6   c6.5-1.1,4.6-7.7,4.6-7.7c2.8,3.9-0.4,8.8-3.3,9.2c-3,0.4-10.6,0.7-10.9,1.4c-0.4,0.7-0.2,4.6-0.2,4.6l3.5,3.3   c2.1,2.3,12.5,8.6,16.7,9s2.5-2.5,2.5-2.5c-4-2.8-9.9-10.2-9.9-10.2c14.8,14.6,20.2,13,19,8.4c-0.7-2.5-12.7-16.7-12.7-16.7   c4,2.8,13.4,13.9,13.4,13.9c1.9-0.7-3-7.7-3-7.7S46.1,24.5,44.7,23.8c-1.4-0.7-4.4-1.1-4.4-1.1l-5.1-5.3c0,0,0,0-1.9-1.9   c-1.9-1.9-3.2-2.1-3.2-2.1l2.8-0.2c-4.4-2.8-8.6-5.3-12.5-5.3S13,12.5,13,12.5c1.6,0.2,1.9,3.9,1.9,3.9l3.1,1.7   c0.3,0.2,0.5,0.6,0.4,1l-0.7,2.1c-0.1,0.3-0.4,0.5-0.7,0.6l-3.5,0.2c0,0,2.6,3.2,1.2,7.6c-1.4,4.4,6,15.5,6,15.5l15.3,24.3   l-0.4-2.5l4.8,3.2v-3.2l2.3,2c0.5,0.8,0.8,1.5,0.8,1.9c-0.1,0.8-4.5,9.5-4.5,9.5s-5,2.1-6.3,1.8s-3.3,0.3-3.4,1.5   c-0.1,1.2-0.1,1.2-0.1,1.2s1.7-1.3,2.6-1.3c0.9,0-0.5,1.2,2.9,0.5c3.4-0.7,7.4-1.7,7.4-1.7s3.6,0.9,5.4,1.2   c1.8,0.3,2.2,1.8,2.2,1.8s0.7-2.8-1.6-3.4c-2.2-0.7-4.6-1.8-4.6-1.8s-0.9-0.3-0.5-2.1c0.4-1.8,4.5-6.9,3.8-7.8   c-0.3-0.4-0.7-1.2-1.1-1.9c1,0.7,1.9,1.2,1.9,1.2l-1.9-3.7c0,0,2.1,0.7,5.5,2.1c3.3,1.4,12.3,0.7,12.3,0.7l-4.8-3.5   C58.8,64.8,55.1,64.6,49.8,62.7z M19.6,15.8c-0.8,0-1.5-0.7-1.5-1.5c0-0.8,0.7-1.5,1.5-1.5s1.5,0.7,1.5,1.5   C21,15.2,20.4,15.8,19.6,15.8z"/><path d="M68.4,62.5c-2.4,2.6-7.1,0.1-7.1,0.1L60.9,64c2.9,2.9,34.9,25,35.5,24.1c0.7-0.9-2-4-2-4c-3.6-3.4-17.9-15.5-19.1-17.4   c-1.2-1.8-5.9-7.4-5.9-7.4C69.6,61.2,68.4,62.5,68.4,62.5z"/><path d="M93.2,88.1C91.9,87.3,64.4,69,64.4,69s18.7,17.1,21.2,19.2c2.5,2.1,4.6,2.4,4.6,2.4l-3.4-5.3c0,0,4.6,5.3,6.5,6.1   c1.8,0.8,4.8,0.7,4.8,0.7S94.6,88.9,93.2,88.1z"/><path d="M48.1,67.6l0.7,2.8l-3.8,6.5l-0.5,1.1c0,0,6.2-6.1,6.9-7c0.7-0.9-0.4-2-0.4-2L48.1,67.6z"/><path d="M33.4,80.7l4.4-1.3l1.1-2c-1.5,1.6-6.5,1.2-7.7,1.2s-3.6,0.8-3.6,0.8c-3,0.1-2.5,2.4-2.5,2.4c0-0.9,2-1.1,2-1.1l0.4,1.1   c0,0,1.2,0.4,2.1-0.4C30.5,80.6,33.4,80.7,33.4,80.7z"/></g></svg>
