<svg xmlns="http://www.w3.org/2000/svg" xmlns:xlink="http://www.w3.org/1999/xlink" version="1.1" x="0px" y="0px" viewBox="0 0 100 125" style="enable-background:new 0 0 100 100;" xml:space="preserve"><g><path d="M12.8,24.5c0,0-2.7-1.2-3.9-2.1c-1.2-0.9-3.5-1.8-3.5-1.8s-2.7,1.8-3.3,4.1c-0.6,2.3,1.7,5.9,1.7,5.9s0,0,0.5-1.8   c0.5-1.8,1.2-2.4,4.5-2.9C12,25.5,12.8,24.5,12.8,24.5z"/><path d="M98,66.1c0,0-1-3.2-3.2-4.6c-2.2-1.4-10.6-5.6-13-7.8c-2.4-2.2-7.8-5.2-7.8-5.2c-1.2-0.4-2.4-0.8-3.5-1.3   c-1.2,0-2.4,0-3.6,0c-1.1,0-2.2-0.1-3.3-0.2c0.2,0.3,0.5,0.6,0.7,0.9c0.3,0.3,0.5,0.7,0.8,1c0.1,0.2,0.3,0.3,0.4,0.5   c0,0,0,0,0.1,0.1c0.2,0,0.4,0.2,0.4,0.3c0,0.1,0,0.1,0.1,0.2c0,0,0,0.1,0,0.1c0,0.1,0,0,0,0.3c-0.2,0.4-0.5,0.5-0.8,0.4   c-0.1,0-0.1,0-0.2-0.1c-0.7,0.1-1.5,0-2.2,0c-0.8-0.1-1.6-0.3-2.4-0.5c-0.8-0.2-1.5-0.5-2.3-0.8c-0.1-0.1-0.3-0.1-0.4-0.2   c0.2,0.4,0.3,0.7,0.5,1.1c0.4,1,0.8,1.9,1.1,2.9l0,0c0.1,0.4,0,0.7-0.4,0.9c-0.1,0-0.2,0-0.3,0c-0.3,0-0.5,0-0.8,0l-0.7-0.1   c-0.5-0.1-1-0.2-1.4-0.3c-0.5-0.1-0.9-0.2-1.4-0.4c-0.5-0.1-0.9-0.3-1.4-0.4c-1.1-0.4-2.2-0.8-3.3-1.2l0.2,0.3   c0.3,0.4,0.5,0.9,0.6,1.3l0.4,1.3c0.1,0.4-0.1,0.8-0.5,0.9c-0.1,0-0.2,0-0.3,0l0,0c-0.9-0.2-1.8-0.2-2.8-0.2   c-1-0.1-1.9-0.1-2.9-0.2c-1.9-0.2-3.9-0.5-5.8-0.8c-0.9-0.2-1.9-0.3-2.9-0.5c-1-0.2-1.9-0.4-2.8-0.7c-1.9-0.5-3.8-1.2-5.5-2.1   c-0.9-0.5-1.7-1.1-2.4-1.8c-0.7-0.7-1.3-1.7-1.6-2.7c-0.1-0.3-0.1-0.5-0.2-0.8c-0.1-0.3-0.1-0.5-0.1-0.8c0-0.6,0-1.1,0.2-1.6   c0.3-1.1,0.9-2,1.7-2.7c0.4-0.4,0.8-0.7,1.1-1c0.4-0.3,0.8-0.6,1-0.9c0.1-0.1,0.2-0.3,0.2-0.3c0,0,0-0.1-0.1-0.2   c-0.1-0.1-0.3-0.2-0.4-0.4c-0.2-0.1-0.4-0.2-0.5-0.3c-0.8-0.4-1.6-0.5-2.5-0.5c-0.9,0-1.8,0.3-2.7,0.6c0.7-0.7,1.6-1.1,2.6-1.4   c1-0.2,2.1-0.2,3.1,0.3c0.2,0.1,0.5,0.2,0.7,0.4c0.2,0.1,0.4,0.3,0.7,0.6c0.1,0.1,0.2,0.3,0.3,0.5c0.1,0.2,0.1,0.4,0.1,0.6   c-0.1,0.5-0.3,0.7-0.5,1c-0.4,0.4-0.8,0.7-1.1,1c-0.4,0.3-0.7,0.6-1,0.9c-0.6,0.6-1.1,1.4-1.3,2.2c-0.1,0.4-0.1,0.8-0.1,1.2   c0,0.2,0,0.5,0.1,0.7c0,0.2,0.1,0.4,0.1,0.6c0.2,0.8,0.7,1.5,1.3,2.2c0.6,0.6,1.4,1.1,2.2,1.6c1.6,0.9,3.4,1.5,5.2,2   c0.9,0.2,1.8,0.5,2.8,0.6c0.9,0.2,1.9,0.3,2.8,0.5c1.9,0.3,3.8,0.6,5.7,0.7c0.9,0.1,1.9,0.1,2.8,0.2c0.6,0,1.2,0.1,1.8,0.1   l-0.1-0.2c-0.1-0.4-0.3-0.7-0.5-1l-1.4-2.2c-0.2-0.3-0.1-0.8,0.2-1c0.2-0.1,0.5-0.2,0.7-0.1l0,0c1.7,0.7,3.5,1.4,5.3,2   c0.4,0.1,0.9,0.3,1.3,0.4c0.4,0.1,0.9,0.3,1.3,0.4c0.4,0.1,0.9,0.2,1.3,0.3l0.2,0c-0.2-0.6-0.5-1.2-0.7-1.8   c-0.2-0.5-0.4-0.9-0.6-1.4c-0.2-0.4-0.4-0.9-0.6-1.3l0,0c-0.2-0.3-0.1-0.8,0.2-1c0.2-0.1,0.5-0.1,0.7,0c0.3,0.2,0.7,0.3,1,0.5   c0.4,0.2,0.7,0.3,1.1,0.4c0.7,0.3,1.4,0.5,2.2,0.7c0.7,0.2,1.5,0.4,2.2,0.5c0.2,0,0.5,0.1,0.7,0.1c-0.2-0.3-0.4-0.5-0.6-0.8   c-0.6-0.7-1.1-1.4-1.6-2.1l0,0c-0.2-0.3-0.1-0.7,0.1-0.9c0.1-0.1,0.3-0.1,0.5-0.1c1.5,0.2,3.1,0.3,4.7,0.4c0.3,0,0.6,0,0.8,0   c-4.5-2.1-8-4.3-8-4.3c2.8,1.8,11,4.2,11,4.2c-8-7.4-17.5-12.2-24.5-15c1.1-0.2,2.2-0.5,3-0.9c0,0-6.8-1.4-10.8-1.8   c-0.1,0-0.1,0-0.2,0c-0.3-0.1-0.6-0.1-0.8-0.2c-3.8-0.8-4.8-2.6-10.2-9.4c-5.4-6.8-13.9-4.4-16.3-3c-2.4,1.4-4.4,4-4.4,4   c3.4,1.8,8.4,4.4,8.8,5.4c0.4,1-7.6,2.4-7.6,2.4c3.6,0.8,5.6,4,5.6,4c1.4,7.2,2.2,17.9,7,24.1c4.8,6.2,12.4,10.2,12.4,10.2   c0-1-0.1-3.3-0.1-4.9c1.3,2.4,2.8,5.7,2.9,7.5c0.1,2.1,0.3,5.5,0.5,7.7c-1.1-0.1-3.1-0.3-3.1-0.3s-2.6-2.6-4.6,0.8c0,0,2-1,3.4,1   c0.8,1.1,2.4,1.4,3.7,1.4c-0.6,0.8-1.5,1.7-2.7,2.5C30,83.2,32.4,86,32.4,86s0.2-3,1.6-3.4c1.3-0.4,3.4-0.1,4.7-2.5   c0.1,0,0.2,0.1,0.3,0.1c1.4,0.2,2.4,0.8,5.4,0.6c3-0.2,4.4,1.8,4.4,1.8s0.4-3.4-3-3.4c0,0-2-1.4-3.4-1.4c0,0,3.2-5.2,4.2-6.8   c1-1.6,2.8-5.2,2.8-5.2s-0.5-3.2-4.6-5.7c0.9,0.2,1.7,0.4,2.2,0.5c2.6,0.6,3.4,3.2,3.4,3.2c1.8,0,5.8-0.4,8.4,0   c2.6,0.4,16,3.4,16,3.4c-1.4-1.8-9.1-4.6-9.1-4.6s3.4,1.1,7,2.1c3.6,1,7.4,2.7,7.4,2.7c-1.2-3.4-8.9-6.5-8.9-6.5   c3.4,0,8.3,3.3,8.3,3.3c2.8,1.8,10.6,6.4,11.6,6.4c1,0,1.2-0.8,1.2-0.8c-2.6-1.2-10.2-7.6-10.2-7.6s10.6,6.4,11.8,6.6   c1.2,0.2,3.2-0.8,3.2-0.8c-1.2-1-13.6-8.8-13.6-8.8L98,66.1z M14.4,21.1c-0.7,0-1.2-0.5-1.2-1.2c0,0,0,0,0-0.1   c-1.2,0.1-2.5,0.4-2.5,0.4c2-1.5,3.7-1.5,3.7-1.5c0.7,0,1.2,0.5,1.2,1.2S15.1,21.1,14.4,21.1z"/></g></svg>
