<svg xmlns="http://www.w3.org/2000/svg" xmlns:xlink="http://www.w3.org/1999/xlink" version="1.1" x="0px" y="0px" viewBox="0 0 100 125" style="enable-background:new 0 0 100 100;" xml:space="preserve"><g><path d="M85.6,76.5c0,0-17-12.3-24.8-18.1c-7.8-5.8-20.6-18.1-21.3-23.9c0,0,11.9,15.9,21.9,21.9S83.6,72,83.6,72s4.9,4.7,6.3,3.6   C91.2,74.5,72,57.3,72,57.3s7.6,5.4,8.5,5.6c0.9,0.2,0.2-1.6-1.3-3.1s-6-9.6-6-9.6C68.6,34.4,51.1,19.9,48,18.3   c-3.1-1.6-2.5-4.9-6.3-9.2C37.9,4.9,32.1,4,30.3,4c-1.8,0-4,0.9-4,0.9L27,2.7c-1.6,0.2-5.1,3.1-5.1,3.1l2-3.8l-3.6,2   c-6.9,4-8.7,11-8.7,11s1.3-0.3,3.9,4.1c0.4,0.7,0.9,3.3,0.7,5c-0.1,1.2-1,2.2-2.2,2.3c0,0,1.3,4.5,3.6,6.9   c2.2,2.5,3.4,11.6,7.6,19.2c4.3,7.6,13.9,19.2,24.2,20.4c10.3,1.1,9.2-1.1,13.9,0.4c4.7,1.6,13.4,6.7,13.4,6.7l16.3,17l-1.3-3.8   c0,0,2.2,4,5.1,4.7C99.7,98.7,85.6,76.5,85.6,76.5z M21.8,16.8C19.6,17,19.1,15,19.1,15s0-1.6,1.6-2.2c1.6-0.7,4.3,0.7,4.3,0.7   S24.1,16.5,21.8,16.8z"/><path d="M13.8,20.5c-0.5-1.6-1.6-2.8-3.6-4.6c0,0-5.1,3.4-7.4,5.6c0,0,5.2-1,7.4-1C11.7,20.5,13.1,20.5,13.8,20.5z"/><path d="M14.2,22.4c0-0.2-0.1-0.5-0.1-0.7c-1.4,0.1-5.7,0.3-8.8,0.6c2.2,0.7,5.3,1.6,6.2,1.6l2.7,0.4   C14.2,24.4,14.3,22.9,14.2,22.4z"/><path d="M53,74.7c0,0-0.7,0.8-3.2,0l-7.4,10.2c0,0-4.9-0.8-7.4,2.2c-2.5,3-1.8,4-1,3.5c0.8-0.5,3-5,7.4-3.4L36.9,94   c0,0-1.3,2-0.5,2.3c0.8,0.3,7.4-7.7,7.4-7.7s-0.5,2.2-1,2.9c-0.5,0.7-1,3-0.2,3.7c0.8,0.7,0.7-2,1.5-2.9c0.8-0.8,2.4-3.1,2.3-5   c0.7,0.5,1.4,1.1,1.5,1.1c0.3,0,2.6-0.4,2.6-0.4c0-0.6,2.1,0.8,2.1,1.6c0,0.8,0.4-1.8-1.1-2.7c-1.4-0.8-3.9-0.7-5.5-2   c0.1-1.1,0.6-2.2,2.1-3.9C50.5,78.2,53,74.7,53,74.7z"/><polygon points="48.1,74.3 46.1,73.8 39.9,82.9 41.6,83.2  "/><path d="M35.2,84.2c-6.9-1.2-7.4,1.2-7.4,1.2c-0.8,0.2-1.2,1.7-1.3,2.5C27,87,29,86.2,29,86.2h4.5L35.2,84.2z"/><path d="M26.5,88.4c0,0,0-0.2,0.1-0.5C26.5,88.1,26.4,88.2,26.5,88.4z"/></g></svg>
