<svg xmlns="http://www.w3.org/2000/svg" xmlns:xlink="http://www.w3.org/1999/xlink" version="1.1" x="0px" y="0px" viewBox="0 0 100 125" style="enable-background:new 0 0 100 100;" xml:space="preserve"><g><path d="M25.9,22.9c1-0.6,3.2-0.4,3.2-0.4s-0.7-3.6,0.4-5.8c1.1-2.2,3.8-6.8,2.9-10.8c0,0-0.8-3.6-3.9-3.8S23,3.5,22,5.5   c0,0-4.1,2.4-7.8,5.6c-2.6,2.2-6,6.6-7.4,9.9c-0.2,0.5,0.5,1,0.8,0.6c3.1-3.4,5.6-9.2,16.6-11c0,0,0.1,0,0.2,0.1   c0.5,0.1,2,0.4,3.8-0.6c0,0-0.4,1.2-3,2c0.1,0.8,0.2,1.9-0.2,4.2c-0.4,2.2-1.8,5.6-1.1,8.8C24,25,24.9,23.4,25.9,22.9z M26.7,6.9   c-0.5,0-1-0.4-1-1s0.4-1,1-1c0.5,0,1,0.4,1,1S27.3,6.9,26.7,6.9z"/><path d="M67.8,68.5c-1.5-3.2-5.4-5.4-5.4-5.4s0.9,3.2-1.7,3.9l3.5,2c0,0,1,1.1,0.2,2c-2.1,2.2-5.4,7.1-6.9,9.1   c-0.7,0.9-1.1,0.9-1.3,2.1c-0.3,2.3-0.8,5-0.7,6c0.2,1.5,1.5,2,1.5,2s0-1.5,0.4-4.1c0.4-2.6,0.6-3.7,0.6-3.7s0.4,2.2,0.4,3.2   c0,0.8-0.1,3.6-0.2,4.5c0,0.1,0,0.2,0.1,0.3c0.3,0.4,0.9,0.3,1-0.1l0.4-1.3c0.4-1.2,0.7-1.4,0.7-2.7c0-1.6,0.1-3.7,0.3-4.4   c0.6-2,3,2.2,3.9,1.5c0.7-0.6-2.4-3.9-1.7-5.4C63.7,76.7,69.3,71.7,67.8,68.5z"/><path d="M53.5,66.7c0,0,0.7,4.3,0.9,5.4c0.2,1.1,0,3.2,0.6,4.1c0.6,0.9,1.3,3.3,1.3,3.3l1.5-2.4c0,0,1.1-2,0.2-3.2   c-0.9-1.1-1.5-6.7-1.5-6.7C55.4,65.7,53.5,66.7,53.5,66.7z"/><path d="M60.4,94.1c-1.9-0.9-3.3-1.9-3.3-1.9s-2-1.1-3.2-4.6c0,0,0.4,5-2,6.1c-2.4,1.1-7,1.9-8.7,2.6c-1.7,0.7-0.7,1.7-0.7,1.7   s5.9-1.1,6.9-1.1c0.9,0,7.2,0,7.8-0.4c0.6-0.4,5,1.1,6.1,0.6C64.3,96.5,62.2,95,60.4,94.1z"/><path d="M91.9,55.9c0,0-5.6-6.5-13.2-9.6l-3.5-0.7c0,0,3.5,2.8,4.4,5.7c0.9,3,2.2,10.2,1.5,13.7c-0.7,3.5-0.7,3.5-0.7,3.5l3.5-4.4   c0,0,1.7,5.7-0.2,8.5c0,0,2.6-1.7,3.2-5.7c0.4-3.2,0.3-6,0.2-7.1c0-0.3,0.1-0.6,0.4-0.8l1-0.7c0.3-0.2,0.6-0.2,0.9,0   c0.8,0.5,2.4,1.5,2.8,2.5C92.8,62,94.3,60.2,91.9,55.9z"/><path d="M71.9,56.8c-3-0.4-10.4,0-17.1-2c-6.7-2-19.3-8.7-21.5-15.8c-2.2-7,4.1-8.2,4.1-8.2s-2.2,1.5-3.3,4.4   c-1.1,3,5.2,11.1,15.2,15.4s18.5,3.5,22.1,3.9c3.5,0.4,7.8,2.4,7.8,2.4l-0.4-2.6C76.9,48.3,71.3,44,71,42.9   c-0.4-1.1,5.7,1.1,5.7,1.1c-13-13.7-27.3-17.2-32.4-18.5c-5.2-1.3-12.2,0-13-0.7c-0.7-0.7-2.4-1.3-4.1-0.7c-1.7,0.6-3,2.8-3,2.8   c-1.1,5,2.6,5.9,4.3,13c1.7,7,7.8,13.7,12.2,16.1c2.5,1.4,5.4,2.2,6,1.9c0.1,0,0.3,0,0.4,0.1c3.6,3.9,11.1,7.5,12.7,7.5   c1.7,0,1.3-2,1.3-2l-1.5-5.2l2.2,3.2c4.1-0.7,8.5-2,11.3-1.9c1.2,0.1,3.8,1.1,6.4,2.3c0-1.1-0.2-2-0.3-2.4   C76.4,58.2,73.3,57,71.9,56.8z"/><path d="M89.1,60.4c0,0-0.2,0.1-0.6,0.3c0.1,1.5,0,3.3,0,4.6c1.3-0.1,2.6-0.7,3-1.4C92.1,63,89.1,60.4,89.1,60.4z"/><path d="M51.7,65.1c0.3,0.5,0.8,0.7,1.3,0.5c0.7-0.3,1.9-0.5,3.4,0.3c0,0-5.8-3.3-6.5-4C49.9,61.8,50.9,63.8,51.7,65.1z"/></g></svg>
