<svg xmlns="http://www.w3.org/2000/svg" xmlns:xlink="http://www.w3.org/1999/xlink" version="1.1" x="0px" y="0px" viewBox="0 0 100 125" style="enable-background:new 0 0 100 100;" xml:space="preserve"><g><path d="M21.4,9.3L21.4,9.3c0,0,1.6-1.1,1.2-1.7c-0.3-0.5-2.8-1-3.5-1.1c0,0,0,0,0,0c-0.4,0.4-1.2,1.1-2.9,1.8   c-2.9,1.2-1.5,1.7,0,2C17.1,10.5,19.6,9.9,21.4,9.3L21.4,9.3z"/><path d="M23.3,7.3c0.5,0.8-0.9,2.1-1.5,2.6l1,1.4c0,8.9-2.6,19.5-3,21.1c1.6,0.4,3.8,0.6,6.3-0.2c-0.2-0.7-0.3-1.2-0.3-1.2   c1-9.4,1.9-21.1,1.9-21.1s1-3.2-0.8-6.4s-8.1-0.7-8.3,1c0,0.5,0,0.9,0.2,1.2C19.8,6,22.8,6.6,23.3,7.3z M24.1,4.7   c0.4,0,0.7,0.3,0.7,0.7c0,0.4-0.3,0.7-0.7,0.7c-0.4,0-0.7-0.3-0.7-0.7C23.4,5,23.7,4.7,24.1,4.7z"/><path d="M67.3,60.2c0,0-5.4-1-7.6-0.5c-2.2,0.5-4.4,4.2-4.4,4.2c0.3,2.4,5.7,2.9,5.7,2.9s0-2,0.7-1.2c0.7,0.8,2,3.6,2,3.6l1.9-3   c0,0-0.2,1.2-1.2,3.7c-1,2.5,0.5,4.4,1.4,3.7c0.8-0.7,2-3,3.4-4.2c1.4-1.2,1-4.2,1-5.1C70.2,63.4,67.3,60.2,67.3,60.2z"/><path d="M73.7,62.2c0-2.4-0.5-3.4-0.5-3.4s-4.1-3-4.7-0.2c0,0,2.5,3,2.9,4.1c0.3,1,0.2,4.1,0.2,4.1s0.3,2.2,1.7,2.2   c1.4,0,1.5-3.6,1.5-3.6S73.7,64.6,73.7,62.2z"/><path d="M78.8,44.7c-1.1,0.8-2.4,2-3.6,3.9c-1.9,3-3.7,4.6-4.8,5.1c-0.3,0.1-0.7-0.1-0.7-0.4c-0.3-2-2.5-4-4.3-4.9   c-2-1-2.8-4.8-2.8-4.8c1.4-2.4,4-3.6,6.2-4.2c-1.5-0.7-3.4-1.7-5.8-3.2c-8.1-5.1-21.8-3-25.1,0.5c-3.3,3.6-8.9,0.3-10.1-1.3   c-0.5-0.6-0.8-1.3-1.1-2c-1.6,0.4-4.3,0.8-7,0.1c-2.1,7.2,3.1,13.3,3.1,13.3C21,55.6,34,63.5,45.1,64c0.1,0,0.3,0,0.4,0   c0.8,1.2,1.7,2.9,2.1,4.7v2c0,0,0.5,2.5,1.1,3.3c0.5,0.7-2.5,16-2.5,16s-1.3,1.3-1.3,2.7c0,1.5-6.6,2.4-6.6,2.4s-2,1.6-2,2.9   l1.8-0.9c0,0,2.5,0.7,3.5,0.5c0.9-0.2,4.6-1.5,4.6-1.5l-1.1,1.6c0,0,4.6,0,4.6-2c0-2,1.1-4,1.1-6c0-2,2.4-15.5,2.4-15.5   s1.5-4,0.5-5.6c-0.5-0.9-1.6-3-2.5-4.7c0.7,0,1.4-0.1,2.2-0.1l0.1-0.3c0,0,1-2.5,4.3-4.6c3.3-2,8.9-0.5,8.9-0.5s1-2.8,2.5-2.8   c1,0,2.7,0.9,3.7,1.5c0.4-1.7,0.9-3.5,1.4-3c0.8,0.8,0.8,9.4,0.8,9.4c1.3,1.5,6.8,2.5,6.8,1.3c0-1.3,0-6.3,0-6.3l2,5.3l1.5-3.3   C85.5,55.5,82.6,48.5,78.8,44.7z"/><path d="M63.7,43.7c0,0,1.1,3,2.9,3.9c2.3,1.2,3.4,3,3.9,4c0.2,0.4,0.6,0.4,0.9,0.2c2.3-2.3,7.1-9.6,6.8-9.2   c-0.3,0.4-2.8,1.6-2.8,1.6s-0.6,0.4,0.5-1.2c1.1-1.6,3.3-2.5,3.3-2.5s-2.1-0.1-3.6,0.5c-2,0.8-5.8,1.5-5.8,1.5l3.6-1.7   c0,0-2.6-0.8-4.7-0.4C66.5,40.6,63.7,43.7,63.7,43.7z"/><path d="M52.4,90.2L52,92.4c0,0,3.6,0,4-1.6c0.4-1.6-1.6-14-1.6-14L52.4,90.2z"/><path d="M39.3,91.8c0.9,0.2,4.2-0.2,4.2-0.2c0,0.7,1.1-2.9,1.1-2.9s-3.5,0.9-4.9,1.3c-1.5,0.4-2.9,2.4-2.9,2.4S38.4,91.6,39.3,91.8   z"/></g></svg>
