<svg xmlns="http://www.w3.org/2000/svg" xmlns:xlink="http://www.w3.org/1999/xlink" version="1.1" x="0px" y="0px" viewBox="0 0 100 125" style="enable-background:new 0 0 100 100;" xml:space="preserve"><g><path d="M12,17.6c-0.2-0.7,0.2-3.3,0.2-3.3C9.2,14.8,2,19.5,2,19.5s6,2.3,8.6,2.3s5.6-1.6,5.6-1.6S12.2,18.3,12,17.6z"/><path d="M58.4,50.1c0,0-2.4,3.5-7.3,1.3c0,0-3.4,3.4-8.4,0.3c0,0-1.6,1-4,0.8c8.5,5.3,40.8,8.5,40.5,7.8   c-0.2-0.5-7.1-8.1-11.6-13.4c-0.5,0.8-1.6,1.6-3.7,1.6C64,48.5,62.6,51.9,58.4,50.1z"/><path d="M96.7,89.4c0,0,2.6,1.4,0.5-3c-2.1-4.4-23-23.4-23-23.4s-23.4-2.6-34.8-7.7c-11.4-5.1-8.8-16.9-8.8-16.9s-0.2,6.3,4.8,11.5   c2,0.9,5.4,1.9,7.5-0.1c0,0,4.9,3.5,7.9-0.5c0,0,3.7,3,7.2-0.9c0,0,4.4,1.9,5.1-1.4c0,0,2.4,0.4,3.2-1.6c-0.8-0.9-1.4-1.8-1.8-2.4   c-2.8-3.9-13.2-13-20.2-16.2c-2.7-1.3-2.6-4.2-2.6-4.2c0.2-5.1-2.6-9.5-2.6-9.5C30.3,0.9,19.4,6.7,16.9,8.6c-2.6,1.9-3,3.7-3,3.7   v4.6l4.9,3c-2.3,3.2-6.7,3.5-6.7,3.5l2.6,6.5C13.8,36.4,15,42.5,15,42.5c7.7,21.8,24.6,30.2,24.6,30.2l0.2,0   c0.3,1.8,0.9,4.8,1.4,4.8c0,0-10,10.4-11.4,10.7c-1.4,0.2-1.4,0.2-1.4,0.2s-4.3-1.4-6,0c-0.9,0.7-2.8,0.9-3,2.3   c-0.2,1.4-0.2,1.4-0.2,1.4s1.6-1.6,2.6-1.6s7,1.9,9.3,0c0,0,0.2,1.2,2.6,1.2c2.3,0,5.1-0.2,5.6-0.9c0.5-0.7,3,1.6,3,1.6   s0.7-2.1-1.4-3.5c-2.1-1.4-5.6-0.2-5.6-0.2l8.1-7.9c0,0,1.9-1,2.7-2.9c0.4-0.1,0.8-0.2,1-0.4c0.4-0.4,1-1.7,1.5-2.9   c1.2-0.4,5.6-1.7,9-1.7c2.7,0,10.5,0.6,15,0.9c-1.8-2-4.8-5.1-9.9-9.7c0,0,9.5,6.3,13.2,10c7.2,6,19.7,20.4,20.9,20.4   s0.7-2.8,0.7-2.8L83.5,76.1C87.7,80.5,96.7,89.4,96.7,89.4z M23.5,17.4c-1.2,0-2.2-1-2.2-2.2c0-1.2,1-2.2,2.2-2.2   c1.2,0,2.2,1,2.2,2.2C25.7,16.4,24.7,17.4,23.5,17.4z"/></g></svg>
