<svg xmlns="http://www.w3.org/2000/svg" xmlns:xlink="http://www.w3.org/1999/xlink" version="1.1" x="0px" y="0px" viewBox="0 0 100 125" style="enable-background:new 0 0 100 100;" xml:space="preserve"><g><path d="M26.9,9.3c-0.6-0.1-0.7-1.1-0.7-1.1c-2.4,1.3-13.4,8.5-13.4,8.5c6-0.9,16.1-4.6,16.1-4.6C27.2,12,27.5,9.4,26.9,9.3z"/><path d="M62.6,62c-0.5-0.7-0.9-1.2-1.2-1.6c2.3-0.2,4.1-0.4,4.1-0.4s-4.8-2.1-10.5-5.4c-5.7-3.3-8.3-8.5-8.3-8.5l2.3,2.3h0.7   c0,0,14.3,0,16.8-2.2c1.8-1.6-1.7-4.8-3.7-6.5c-1.6-0.8-3-1.7-3-1.7l4.8,1.6l-3-2.8c-4.3-3.7-17.4-8.3-20.1-9.3   c-2.7-1-3.3-2.4-3.3-2.4c-1.1-4.4,4.1-12.8,3.7-15.2c-0.4-2.4-1.4-3.6-1.4-3.6l1.6,1c0,0-1.7-5.3-7.1-5.3s-7.8,5.1-7.8,5.1   c0.4,1.4,1.3,1.7,1.3,1.7l0.3,1.7c1.6,3.4,6.8,1.6,6.8,1.6c-0.6,0.6-3.8,1.9-3.8,1.9c-1.1,3.7-2.3,12.2-2.6,18.2   c-0.3,6,2.4,12.4,4.7,15.9c2.3,3.6,7,5.7,7,5.7c-0.7-0.7-2.1-4.1-2.1-4.1c3.9,3.6,7.8,8.1,11.6,10l1,6.5c0,0-0.5,1.9-0.2,2.9   c0.3,1,0.3,1,0.3,1l0.2,2.6l2.1-1.5c0-0.4,0-0.8,0-0.9c0.2-1.2,1.2-2.2,0-4.4l-1.1-5.3c0.1,0,0.2,0,0.3,0c1.4,0.2,3.2,0.2,5,0.2   l4.5,5.8c0,0-14.5,10.3-16.2,12c-1.7,1.7-3.4,6.4-3.4,6.4s0.3,2,0.8,2c0.5,0,0-1.5,0.7-2.7c0.7-1.2,1.5-2.9,1.5-2.9l-0.8,3.9   c0,0-0.3,2,0.5,2.7c0,0,0-1.4,1.4-3.2c1.4-1.9,1-4.1,2.4-5.1c0,0,1,2.7,0.7,4.1c0,0,2.2-1.5,0.8-4.9c0,0,0.5-1.5,2.4-3   c1.9-1.5,13-8.1,13-9.3S64.5,64.6,62.6,62z M34.4,7.1c0,0-0.2,0.8-1.4,1.1c-0.4,0.1-0.9-0.1-0.9-0.1l-0.4-0.3l-2.4,0.8l1-0.8   L31.5,7c0,0,0-0.7,1-1.1c1-0.4,1.5,0.3,1.5,0.3l1.8-0.3L34.4,7.1z"/><path d="M56.4,88.4c0,0-1,0.3-1.5-1.7c-0.3-1.1-0.6-5.8-0.8-10l-1.8,1.7l0.7,8c0,0,0.2,1.5-1.2,2.4c-1.4,0.8-4.7,1.9-5.7,2.9   c-1,1-1,1-1,1l6.2-1.5c0,0,1.4,0.2,0.8,2c-0.5,1.9-1.7,2.7-2,4.7c0,0,4.4-4.6,5.1-7.4c0,0,0.5-0.3,2,0.2c1.5,0.5,3.7,0.8,3.7,0.8   S59.4,90.1,56.4,88.4z"/><path d="M78.7,53.2c0,0-1.1-2.6-3.1-5.3c-2-2.7-4.4-3.6-4.4-3.6s0.6,0.1,2.8,0.1c2.3,0-0.8-1.6-1.3-1.8c-1.1-0.4-3.6-1.1-6.2-1.5   c-0.1,0-0.1,0-0.2,0c1.4,1.5,3.5,4.5,1.3,6.3c-2.7,2.2-14,2.6-16.8,2.6c7.4,6.8,21.8,10.6,24.8,11.7c3,1.1,11.5,2.4,11.5,2.4   C85.3,59.2,78.7,53.2,78.7,53.2z"/></g></svg>
