<svg xmlns="http://www.w3.org/2000/svg" xmlns:xlink="http://www.w3.org/1999/xlink" version="1.1" x="0px" y="0px" viewBox="0 0 100 125" style="enable-background:new 0 0 100 100;" xml:space="preserve"><g><path d="M48.8,10.8c0.7,1.6,0.9,4.9,1.7,6.5c0,0,2.6-1.6,2.6-3.1s-0.5-6.3,1.2-8c0,0-1.7,0.7-3.5-0.2c0,0-5.4-2.8-9.6-3.8   S48.1,9.2,48.8,10.8z"/><path d="M71.3,6.6c-3.5-2.1-8.4-2.1-9.9-0.7c0,0,3.1,2.3,4.5,4.4c1.4,2.1,0.9,3.3,2.3,4.7c1.4,1.4,2.3,3.5,3,6.5   c0,0,2.3-4.1,2.3-5.1c-0.2-2.4,0.5-2.3-1.7-4.9c0,0,2.8,1,2.8,2.3C74.4,15,74.8,8.7,71.3,6.6z"/><ellipse transform="matrix(0.7071 -0.7071 0.7071 0.7071 8.6227 45.9412)" cx="59.8" cy="12.6" rx="1" ry="1"/><path d="M53.5,29c0,0,0.2-2.3-1.2-2.8c-1-0.4-6-0.1-9.2,0.6c-0.3,0.5-0.7,1.1-1,1.7c-3.1,6.3-5.1,15-5.1,15s-2.4-0.9-3.3-3.3   c-0.9-2.4-2.6-8.4-3.5-9.4c-0.9-1-0.3-4.4-1.6-4.9c-1.2-0.5-0.7-1.9-3.1-2.4c0,0,1,1.9,0.9,2.6c-0.2,0.7,1.4,5.9,1.4,5.9v2.4   c0,0-1,3.3-1,4c0,0.7,0.3,3.3,0.3,3.3s0,2.6-0.9,3.3c0,0,2.6-1.4,3-3.1c0.3-1.7,0.5-2.6,0.9-3.1c0.3-0.5,1.9,2.8,2.6,4.9   c0.7,2.1,1.7,4,2.8,4.4c0,0,1,2.8,1,4.2c0,1.4,0.9,10.5,2.8,14.3l0.7,8.4c0,0,2.8-7.7,5.4-10.1l-4.9,14.1c0,0-3.3,9.9-5.2,16.8   c0,0-1,3,0.9,2.3c1.5-0.5,7.2-11.6,9.8-16.6l1.9-22.7C47.9,58.6,50.2,42.4,53.5,29z"/><path d="M67.3,16.2c-1.6-1.2-1.4-3.8-3.1-5.8c-1.7-1.9-3.3-3-4.4-4.4c0,0-1.7-0.5-3.7,0c0,0-1.6,2.3-1.4,5.2c0.2,3,0.2,4.4,0.2,4.4   s-1.7,2.6-4,3.5c0,0-3.6,1.9-6.6,5.9c2.1-0.2,5.8-0.6,8.5-0.2c0.9,0.1,1.7,0.7,2,1.6c0.3,0.7,0.5,1.6,0.2,2.5   c-0.5,1.9-4.7,19.5-5.8,30.2c-0.9,9-1.8,17.5-2,19.9c0.1-0.1,0.1-0.2,0.1-0.2s-0.5,7.7-0.3,8.7c0.2,1,1,3.7,2.6-1.7   c1.6-5.4,4.9-14,4.9-14s0,0,0.1-0.1c0.5-5.1,0.7-13.5,0.4-15.6c-0.3-2.6,0.7-14,0.7-14S55.8,49,56.3,55c0.4,4.5,0.3,10.7,0.3,14.3   c3.4-4.2,9.6-13,11.3-21.3c2.3-11.5,2.1-19.9,2.4-23.7C70.2,24.3,68.8,17.4,67.3,16.2z M59.8,14.7c-1.2,0-2.1-0.9-2.1-2.1   s0.9-2.1,2.1-2.1c1.2,0,2.1,0.9,2.1,2.1S60.9,14.7,59.8,14.7z"/></g></svg>
